<svg width="46" height="32" viewBox="0 0 46 32" fill="none" xmlns="http://www.w3.org/2000/svg">
<path d="M8.33338 5.33325H5.66675V7.99988H8.33338V5.33325Z" fill="#4BA306"/>
<path d="M18.9999 5.33325H11V7.99988H18.9999V5.33325Z" fill="#4BA306"/>
<path d="M21.6666 8.00024H19V10.6664H21.6666V8.00024Z" fill="#4BA306"/>
<path d="M18.9999 10.6665H5.66675V13.3331H18.9999V10.6665Z" fill="#4BA306"/>
<path d="M21.6666 13.3337H19V15.9999H21.6666V13.3337Z" fill="#4BA306"/>
<path d="M18.9999 15.9998H5.66675V18.6664H18.9999V15.9998Z" fill="#4BA306"/>
<path d="M21.6666 18.667H19V21.3336H21.6666V18.667Z" fill="#4BA306"/>
<path d="M24.3331 2.66699H21.667V5.33315H24.3331V2.66699Z" fill="#4BA306"/>
<path d="M24.3331 0V2.6671H43.0005V21.3335H29.6664V24.0001H24.3331V26.6667H21.667V24.0001H16.3337V21.3335H2.99965V2.6671H21.667V0H0.333496V29.3334H18.9999V32H27.0002V29.3334H45.6666V0H24.3331Z" fill="#4BA306"/>
<path d="M40.3334 5.33325H27.0002V7.99988H40.3334V5.33325Z" fill="#4BA306"/>
<path d="M26.9999 8.00024H24.3333V10.6664H26.9999V8.00024Z" fill="#4BA306"/>
<path d="M40.3334 10.6665H27.0002V13.3331H40.3334V10.6665Z" fill="#4BA306"/>
<path d="M26.9999 13.3337H24.3333V15.9999H26.9999V13.3337Z" fill="#4BA306"/>
<path d="M40.3334 15.9998H27.0002V18.6664H40.3334V15.9998Z" fill="#4BA306"/>
<path d="M26.9999 18.667H24.3333V21.3336H26.9999V18.667Z" fill="#4BA306"/>
</svg>
