<svg width="75" height="84" viewBox="0 0 75 84" fill="none" xmlns="http://www.w3.org/2000/svg">
<rect width="71" height="79" transform="translate(4)" fill="white"/>
<path d="M4.16 0V8.31H0V83.1H66.49V78.94H74.79V0H4.16ZM4.16 78.94V12.46H62.33V78.94H4.16ZM70.639 74.79H66.49V8.31H8.309V4.15H70.639V74.79ZM49.87 37.38H54.019V54.02H49.87V37.38ZM45.719 54.02H49.87L49.869 58.17H45.719V54.02ZM41.539 58.17H45.719V62.33H37.389V66.48H45.719V70.63H20.769V66.48H29.08V62.33H20.769V58.17H24.929V54.02H29.079V58.17H37.389V54.02H41.539V58.17ZM24.929 24.92V20.77H41.539V24.92H24.929ZM24.929 49.87H41.539V54.02H45.719V49.87V24.92H41.539V29.08H24.929V24.92H20.769V54.02H24.929V49.87ZM24.929 33.23H41.539V37.38H24.929V33.23ZM24.929 41.56H41.539V45.71H24.929V41.56ZM20.769 54.02V58.17H16.62V54.02H20.769ZM16.62 54.02H12.47V37.38H16.62V54.02Z" fill="black"/>
</svg>
