<svg width="113" height="68" viewBox="0 0 113 68" fill="none" xmlns="http://www.w3.org/2000/svg">
<rect x="3.5" y="11" width="54" height="54" rx="27" fill="white"/>
<path d="M48.0276 50.4253C47.1843 51.6113 46.2238 52.7085 45.1632 53.6998V50.4253H46.6988H48.0276ZM51.8254 40.6896C51.3875 44.1809 50.1087 47.4147 48.1988 50.181V48.9253V44.0365H49.2345H50.7345V42.5365V40.6896H51.1481H51.8254ZM34.6776 23.7127V24.0922H32.7207H31.906V23.791V23.7127H34.0558H34.6776ZM31.2207 25.291V25.5922V27.8562H30.6069H29.1069V29.3562V41.5202V43.0202H30.6069H34.0567V48.9253V50.4253H35.5567H37.0917V54.8829V56.3829H38.5917H41.6256C38.378 58.3558 34.5692 59.4928 30.5 59.4928C24.969 59.4928 19.9189 57.3921 16.1057 53.9467H21.064H22.564V52.4467V46.786H23.7354H25.2354V45.286V38V36.5H23.7354H17.5859V33.0784V31.5784H16.0859H15.036V30.0259H20.3356H21.8356V28.5259V25.291H30.406H31.2207ZM36.1776 17.5665H35.5558V17.1091C36.1003 17.241 36.6368 17.3938 37.1644 17.5665H36.1776ZM41.506 20.7127V19.5501C42.1059 19.9098 42.6869 20.2979 43.2474 20.7127H41.506ZM13.0647 46.786V50.5538C12.2176 49.3808 11.4859 48.1192 10.8862 46.786H12.1929H13.0647ZM10.6929 45.286V46.343C10.0917 44.9212 9.63926 43.4218 9.35527 41.8644H10.2425H10.6929V45.286ZM50.6526 17.8474C45.2716 12.4664 38.1095 9.5 30.5 9.5C22.8899 9.5 15.7284 12.4664 10.3474 17.8474C4.96643 23.2284 2 30.3899 2 38C2 45.6095 4.96642 52.7716 10.3474 58.1526C15.7284 63.5336 22.8899 66.5 30.5 66.5C38.1095 66.5 45.2716 63.5336 50.6526 58.1526C56.0336 52.7716 59 45.6095 59 38C59 30.3899 56.0336 23.2284 50.6526 17.8474Z" fill="#4BA306" stroke="white" stroke-width="3"/>
<rect width="65" height="65" transform="translate(47.5)" fill="white"/>
<path d="M55.625 0H47.5V65H55.625V0Z" fill="black"/>
<path d="M108.438 16.25H112.5V0H108.438V4.0625H104.375V8.125H92.1875V12.1875H84.0625V4.0625H63.75V8.125H59.6875V40.625H63.75V36.5625H71.875V32.5H80V40.625H96.25V36.5625H100.312V28.4375H104.375V24.375H108.438V16.25Z" fill="black"/>
</svg>
