<svg width="24" height="24" viewBox="0 0 24 24" fill="none" xmlns="http://www.w3.org/2000/svg">
<g id="clock-01">
<path id="Icon" d="M15.5588 15.1987C16.0827 15.3733 16.649 15.0902 16.8237 14.5662C16.9983 14.0423 16.7152 13.476 16.1912 13.3013L15.5588 15.1987ZM12.5 13.125H11.5C11.5 13.5554 11.7754 13.9376 12.1838 14.0737L12.5 13.125ZM13.5 8.42087C13.5 7.86858 13.0523 7.42087 12.5 7.42087C11.9477 7.42087 11.5 7.86858 11.5 8.42087H13.5ZM16.1912 13.3013L12.8162 12.1763L12.1838 14.0737L15.5588 15.1987L16.1912 13.3013ZM13.5 13.125V8.42087H11.5V13.125H13.5ZM20.5 12C20.5 16.4183 16.9183 20 12.5 20V22C18.0228 22 22.5 17.5228 22.5 12H20.5ZM12.5 20C8.08172 20 4.5 16.4183 4.5 12H2.5C2.5 17.5228 6.97715 22 12.5 22V20ZM4.5 12C4.5 7.58172 8.08172 4 12.5 4V2C6.97715 2 2.5 6.47715 2.5 12H4.5ZM12.5 4C16.9183 4 20.5 7.58172 20.5 12H22.5C22.5 6.47715 18.0228 2 12.5 2V4Z" fill="#475467"/>
</g>
</svg>
