<svg width="64" height="32" viewBox="0 0 64 32" fill="none" xmlns="http://www.w3.org/2000/svg">
<path fill-rule="evenodd" clip-rule="evenodd" d="M13.7143 4.57143H18.2857V0H13.7143V4.57143ZM9.14286 9.14286H13.7143V4.57143H9.14286V9.14286ZM4.57143 13.7143H9.14286V9.14286H4.57143V13.7143ZM0 18.2857H4.57143V13.7143H0V18.2857ZM4.57143 22.8571H9.14286V18.2857H4.57143V22.8571ZM9.14286 27.4286H13.7143V22.8571H9.14286V27.4286ZM13.7143 32H18.2857V27.4286H13.7143V32ZM22.8571 32H27.4286V27.4286H22.8571V32ZM27.4286 27.4286H32V22.8571H27.4286V27.4286ZM27.4286 22.8571H32V18.2857H27.4286V22.8571ZM32 18.2857H36.5714V13.7143H32V18.2857ZM32 13.7143H36.5714V9.14286H32V13.7143ZM36.5714 9.14286H41.1429V4.57143H36.5714V9.14286ZM45.7143 32H50.2857V27.4286H45.7143V32ZM50.2857 27.4286H54.8571V22.8571H50.2857V27.4286ZM54.8571 22.8571H59.4286V18.2857H54.8571V22.8571ZM59.4286 18.2857H64V13.7143H59.4286V18.2857ZM54.8571 13.7143H59.4286V9.14286H54.8571V13.7143ZM50.2857 9.14286H54.8571V4.57143H50.2857V9.14286ZM45.7143 4.57143H50.2857V0H45.7143V4.57143Z" fill="#4BA306"/>
</svg>
