<svg width="62" height="50" viewBox="0 0 62 50" fill="none" xmlns="http://www.w3.org/2000/svg">
<path d="M49.787 0H42.0136V3.88668H38.2266V15.3474H42.0136V19.2341H49.787V15.3474H53.574V3.88668H49.787V0Z" fill="#8ACE54" fill-opacity="0.6"/>
<path d="M57.4605 23.1206V26.9076H61.2476V38.468H30.5527V26.9076H34.3398V23.1206H57.4605Z" fill="#8ACE54" fill-opacity="0.6"/>
<path d="M19.2342 0H11.4609V3.88668H7.67383V15.3474H11.4609V19.2341H19.2342V15.3474H23.0212V3.88668H19.2342V0Z" fill="#8ACE54" fill-opacity="0.6"/>
<path d="M26.9078 23.1206V26.9076H30.6948V38.468H0V26.9076H3.78703V23.1206H26.9078Z" fill="#8ACE54" fill-opacity="0.6"/>
<path d="M36.1449 11.5317H28.3715V15.4184H24.5845V26.8791H28.3715V30.7658H36.1449V26.8791H39.9319V15.4184H36.1449V11.5317Z" fill="#4BA306"/>
<path d="M43.8184 34.6523V38.4394H47.6055V49.9998H16.9106V38.4394H20.6977V34.6523H43.8184Z" fill="#4BA306"/>
</svg>
