<svg width="146" height="146" viewBox="0 0 146 146" fill="none" xmlns="http://www.w3.org/2000/svg">
<path d="M143.137 22.902C144.712 22.902 146 21.6137 146 20.0392V2.86275C146 1.28824 144.712 0 143.137 0H125.961C124.386 0 123.098 1.28824 123.098 2.86275V8.58824H84.0788C82.8192 3.66431 78.3247 0 73 0C67.6753 0 63.1808 3.66431 61.9212 8.58824H22.902V2.86275C22.902 1.28824 21.6137 0 20.0392 0H2.86275C1.28824 0 0 1.28824 0 2.86275V20.0392C0 21.6137 1.28824 22.902 2.86275 22.902H8.58824V61.9212C3.66431 63.2094 0 67.6753 0 73C0 78.3247 3.66431 82.8192 8.58824 84.0788V123.098H2.86275C1.28824 123.098 0 124.386 0 125.961V143.137C0 144.712 1.28824 146 2.86275 146H20.0392C21.6137 146 22.902 144.712 22.902 143.137V137.412H61.9212C63.2094 142.336 67.6753 146 73 146C78.3247 146 82.8192 142.336 84.0788 137.412H123.098V143.137C123.098 144.712 124.386 146 125.961 146H143.137C144.712 146 146 144.712 146 143.137V125.961C146 124.386 144.712 123.098 143.137 123.098H137.412V84.0788C142.336 82.7906 146 78.3247 146 73C146 67.6753 142.336 63.1808 137.412 61.9212V22.902H143.137ZM128.824 5.72549H140.275V17.1765H128.824V5.72549ZM73 5.72549C76.149 5.72549 78.7255 8.30196 78.7255 11.451C78.7255 14.6 76.149 17.1765 73 17.1765C69.851 17.1765 67.2745 14.6 67.2745 11.451C67.2745 8.30196 69.851 5.72549 73 5.72549ZM5.72549 5.72549H17.1765V17.1765H5.72549V5.72549ZM5.72549 73C5.72549 69.851 8.30196 67.2745 11.451 67.2745C14.6 67.2745 17.1765 69.851 17.1765 73C17.1765 76.149 14.6 78.7255 11.451 78.7255C8.30196 78.7255 5.72549 76.149 5.72549 73ZM17.1765 140.275H5.72549V128.824H17.1765V140.275ZM73 140.275C69.851 140.275 67.2745 137.698 67.2745 134.549C67.2745 131.4 69.851 128.824 73 128.824C76.149 128.824 78.7255 131.4 78.7255 134.549C78.7255 137.698 76.149 140.275 73 140.275ZM140.275 140.275H128.824V128.824H140.275V140.275ZM140.275 73C140.275 76.149 137.698 78.7255 134.549 78.7255C131.4 78.7255 128.824 76.149 128.824 73C128.824 69.851 131.4 67.2745 134.549 67.2745C137.698 67.2745 140.275 69.851 140.275 73ZM131.686 61.9212C126.762 63.2094 123.098 67.6753 123.098 73C123.098 78.3247 126.762 82.8192 131.686 84.0788V123.098H125.961C124.386 123.098 123.098 124.386 123.098 125.961V131.686H84.0788C82.7906 126.762 78.3247 123.098 73 123.098C67.6753 123.098 63.1808 126.762 61.9212 131.686H22.902V125.961C22.902 124.386 21.6137 123.098 20.0392 123.098H14.3137V84.0788C19.2376 82.7906 22.902 78.3247 22.902 73C22.902 67.6753 19.2376 63.1808 14.3137 61.9212V22.902H20.0392C21.6137 22.902 22.902 21.6137 22.902 20.0392V14.3137H61.9212C63.2094 19.2376 67.6753 22.902 73 22.902C78.3247 22.902 82.8192 19.2376 84.0788 14.3137H123.098V20.0392C123.098 21.6137 124.386 22.902 125.961 22.902H131.686V61.9212Z" fill="#808080"/>
<path d="M117.372 110.187V35.7845C117.372 34.21 116.083 32.9218 114.509 32.9218H31.4892C29.9147 32.9218 28.6265 34.21 28.6265 35.7845V110.216C28.6265 110.244 28.6265 110.244 28.6265 110.273C28.6265 110.33 28.6265 110.388 28.6265 110.416C28.6265 110.474 28.6265 110.502 28.6265 110.559C28.6265 110.617 28.6265 110.645 28.6551 110.703C28.6551 110.76 28.6837 110.788 28.6837 110.846C28.6837 110.874 28.7123 110.932 28.7123 110.96C28.7123 111.017 28.741 111.075 28.7696 111.103C28.7696 111.132 28.7982 111.189 28.7982 111.218C28.8269 111.275 28.8269 111.304 28.8555 111.361C28.8841 111.39 28.8841 111.447 28.9127 111.475C28.9414 111.504 28.9414 111.561 28.97 111.59C28.9986 111.647 29.0272 111.676 29.0559 111.733C29.0845 111.762 29.0845 111.79 29.1131 111.848C29.1418 111.905 29.1704 111.934 29.199 111.962C29.2276 111.991 29.2563 112.019 29.2849 112.048C29.3135 112.077 29.3422 112.134 29.3708 112.163C29.3994 112.191 29.428 112.22 29.4567 112.248C29.4853 112.277 29.5139 112.306 29.5425 112.334C29.5712 112.363 29.6284 112.392 29.6571 112.449L29.6857 112.477C29.7143 112.506 29.7143 112.506 29.7429 112.535C29.8002 112.563 29.8288 112.592 29.8861 112.621C29.9147 112.649 29.9433 112.678 30.0006 112.678C30.0578 112.706 30.0865 112.735 30.1437 112.764C30.1723 112.792 30.2296 112.792 30.2582 112.821C30.3155 112.85 30.3441 112.85 30.4014 112.878C30.4586 112.907 30.4872 112.907 30.5445 112.935C30.5731 112.964 30.6304 112.964 30.6876 112.964C30.7449 112.964 30.7735 112.993 30.8308 112.993C30.8594 112.993 30.9167 113.021 30.9453 113.021C31.0025 113.021 31.0598 113.05 31.1171 113.05C31.1457 113.05 31.2029 113.05 31.2316 113.05C31.2888 113.05 31.3461 113.05 31.4033 113.05C31.432 113.05 31.4606 113.05 31.4892 113.05H85.8814H114.509C114.595 113.05 114.681 113.05 114.766 113.05C114.795 113.05 114.795 113.05 114.824 113.05C114.881 113.05 114.967 113.021 115.024 113.021C115.053 113.021 115.053 113.021 115.081 113.021C115.167 112.993 115.253 112.993 115.339 112.964C115.368 112.964 115.368 112.964 115.396 112.935C115.454 112.907 115.511 112.878 115.597 112.878C115.625 112.878 115.654 112.85 115.683 112.85C115.74 112.821 115.768 112.792 115.826 112.792C115.854 112.764 115.883 112.764 115.912 112.735C115.969 112.706 115.997 112.678 116.055 112.649C116.083 112.621 116.112 112.621 116.112 112.592C116.141 112.563 116.141 112.563 116.169 112.535C116.226 112.506 116.284 112.449 116.312 112.42C116.341 112.392 116.37 112.363 116.427 112.334C116.455 112.306 116.484 112.277 116.513 112.248C116.541 112.22 116.599 112.163 116.627 112.134C116.656 112.105 116.685 112.077 116.713 112.048C116.742 112.019 116.77 111.962 116.799 111.905C116.828 111.876 116.856 111.848 116.856 111.819C116.885 111.79 116.914 111.733 116.942 111.676C116.971 111.647 116.999 111.59 116.999 111.561C117.028 111.533 117.028 111.475 117.057 111.447C117.085 111.39 117.085 111.361 117.114 111.304C117.143 111.275 117.143 111.218 117.143 111.189C117.171 111.132 117.171 111.075 117.2 111.046C117.2 111.017 117.228 110.96 117.228 110.932C117.228 110.874 117.257 110.817 117.257 110.76C117.257 110.703 117.257 110.674 117.286 110.617C117.286 110.559 117.314 110.531 117.314 110.474C117.314 110.416 117.314 110.359 117.314 110.273C117.314 110.244 117.314 110.216 117.314 110.187H117.372ZM111.646 38.6472V100.998L85.3661 62.7802C84.8222 61.9786 83.9061 61.5206 82.9327 61.5492C81.9594 61.5778 81.072 62.0645 80.5567 62.8947L69.1629 81.1017L62.4355 71.3684C61.9202 70.6241 61.0614 70.1661 60.1453 70.1374C59.2292 70.1088 58.3704 70.5382 57.7978 71.2539L34.352 101.799V38.6472H111.646ZM87.37 107.353L72.7414 86.2261L83.1045 69.6221L109.07 107.353H87.37ZM66.9872 87.9437L67.0159 87.9723L80.4421 107.353H37.3006L60.0022 77.8668L66.9872 87.9437Z" fill="#808080"/>
<path d="M48.6678 61.5492C53.3914 61.5492 57.2561 57.6844 57.2561 52.9609C57.2561 48.2374 53.3914 44.3727 48.6678 44.3727C43.9443 44.3727 40.0796 48.2374 40.0796 52.9609C40.0796 57.6844 43.9443 61.5492 48.6678 61.5492ZM48.6678 50.0982C50.2423 50.0982 51.5306 51.3864 51.5306 52.9609C51.5306 54.5354 50.2423 55.8237 48.6678 55.8237C47.0933 55.8237 45.8051 54.5354 45.8051 52.9609C45.8051 51.3864 47.0933 50.0982 48.6678 50.0982Z" fill="#808080"/>
</svg>
