<svg width="18" height="18" viewBox="0 0 18 18" fill="none" xmlns="http://www.w3.org/2000/svg">
  <g clip-path="url(#clip0_2810_9549)">
    <path d="M10.3832 12.9503L7.93672 15.3968C7.22641 16.0881 6.27247 16.472 5.2813 16.4654C4.29013 16.4587 3.34143 16.0621 2.64045 15.3613C1.93947 14.6605 1.54259 13.712 1.53566 12.7208C1.52874 11.7296 1.91234 10.7756 2.60347 10.0651L5.04997 7.61634C5.1906 7.47561 5.26956 7.28477 5.26949 7.08582C5.26942 6.88687 5.19032 6.69609 5.04959 6.55546C4.90886 6.41483 4.71803 6.33587 4.51908 6.33594C4.32012 6.33601 4.12935 6.41511 3.98872 6.55584L1.54297 9.00458C0.55467 9.99338 -0.000351474 11.3343 1.66988e-07 12.7323C0.000351808 14.1303 0.556048 15.4709 1.54484 16.4592C2.53363 17.4475 3.87453 18.0025 5.27254 18.0022C6.67056 18.0018 8.01117 17.4461 8.99947 16.4573L11.446 14.0108C11.5826 13.8694 11.6582 13.6799 11.6565 13.4833C11.6548 13.2866 11.5759 13.0985 11.4368 12.9595C11.2978 12.8204 11.1097 12.7415 10.913 12.7398C10.7164 12.7381 10.5269 12.8137 10.3855 12.9503H10.3832Z" fill="#969696"/>
    <path d="M16.4588 1.54577C15.9708 1.05438 15.3901 0.664727 14.7504 0.399391C14.1107 0.134054 13.4247 -0.00169234 12.7321 1.84806e-05V1.84806e-05C12.0399 -0.00182032 11.3542 0.133577 10.7146 0.398382C10.0751 0.663187 9.49439 1.05215 9.00609 1.54277L6.55584 3.99002C6.41511 4.13065 6.33601 4.32143 6.33594 4.52038C6.33587 4.71933 6.41483 4.91016 6.55546 5.05089C6.6961 5.19162 6.88687 5.27073 7.08582 5.2708C7.28478 5.27087 7.47561 5.1919 7.61634 5.05127L10.0651 2.60477C10.4143 2.25351 10.8296 1.975 11.2872 1.78536C11.7447 1.59573 12.2353 1.49874 12.7306 1.50002V1.50002C13.4763 1.50027 14.2052 1.72159 14.8251 2.13602C15.445 2.55044 15.9282 3.13937 16.2135 3.82833C16.4987 4.5173 16.5734 5.27538 16.4279 6.00675C16.2824 6.73812 15.9233 7.40993 15.3961 7.93727L12.9496 10.3838C12.8089 10.5245 12.7298 10.7154 12.7298 10.9144C12.7298 11.1134 12.8089 11.3043 12.9496 11.445C13.0903 11.5858 13.2812 11.6648 13.4802 11.6648C13.6792 11.6648 13.8701 11.5858 14.0108 11.445L16.4573 9.00002C17.4444 8.01084 17.9988 6.6706 17.9991 5.2732C17.9994 3.87581 17.4455 2.53534 16.4588 1.54577V1.54577Z" fill="#969696"/>
    <path d="M10.7212 6.21835L6.22115 10.7183C6.14952 10.7875 6.09238 10.8703 6.05308 10.9618C6.01377 11.0533 5.99308 11.1517 5.99222 11.2513C5.99135 11.3509 6.01033 11.4496 6.04804 11.5418C6.08575 11.634 6.14144 11.7177 6.21186 11.7881C6.28228 11.8586 6.36602 11.9142 6.45819 11.952C6.55036 11.9897 6.64912 12.0086 6.7487 12.0078C6.84829 12.0069 6.9467 11.9862 7.03821 11.9469C7.12971 11.9076 7.21247 11.8505 7.28165 11.7788L11.7817 7.27884C11.9183 7.13739 11.9939 6.94794 11.9922 6.75129C11.9905 6.55465 11.9116 6.36654 11.7725 6.22748C11.6335 6.08843 11.4454 6.00955 11.2487 6.00784C11.0521 6.00613 10.8626 6.08173 10.7212 6.21835Z" fill="#969696"/>
  </g>
  <defs>
    <clipPath id="clip0_2810_9549">
      <rect width="18" height="18" fill="white"/>
    </clipPath>
  </defs>
</svg>
