<svg width="80" height="40" viewBox="0 0 80 40" fill="none" xmlns="http://www.w3.org/2000/svg">
<rect x="20.001" y="39.9951" width="19.9992" height="19.9996" transform="rotate(-180 20.001 39.9951)" fill="#46B4FF"/>
<rect x="14.8022" y="34.7991" width="9.59961" height="9.5998" transform="rotate(-180 14.8022 34.7991)" fill="#28AFF9"/>
<path d="M11.313 34.802L6.51318 34.802L6.51318 30.0021L11.313 30.0021L11.313 34.802Z" fill="#1BA5E2"/>
<rect x="19.999" y="19.9995" width="19.9992" height="19.9996" transform="rotate(-180 19.999 19.9995)" fill="#46B4FF"/>
<rect x="14.8008" y="14.8062" width="9.59961" height="9.5998" transform="rotate(-180 14.8008 14.8062)" fill="#28AFF9"/>
<rect x="10.1118" y="14.8062" width="4.7998" height="4.7999" transform="rotate(-180 10.1118 14.8062)" fill="#1BA5E2"/>
<rect x="59.999" y="39.9995" width="19.9992" height="19.9996" transform="rotate(-180 59.999 39.9995)" fill="#46B4FF"/>
<rect x="54.8003" y="34.8035" width="9.59961" height="9.5998" transform="rotate(-180 54.8003 34.8035)" fill="#28AFF9"/>
<rect x="50.1118" y="34.8035" width="4.7998" height="4.7999" transform="rotate(-180 50.1118 34.8035)" fill="#1BA5E2"/>
<rect x="39.999" y="40.0542" width="19.9992" height="19.9996" transform="rotate(-180 39.999 40.0542)" fill="#46B4FF"/>
<rect x="34.8003" y="34.8582" width="9.59961" height="9.5998" transform="rotate(-180 34.8003 34.8582)" fill="#28AFF9"/>
<rect x="30.1118" y="34.8582" width="4.7998" height="4.7999" transform="rotate(-180 30.1118 34.8582)" fill="#1BA5E2"/>
</svg>
