<svg width="180" height="180" viewBox="0 0 180 180" fill="none" xmlns="http://www.w3.org/2000/svg">
<path d="M90 0C40.3743 0 0 40.3712 0 90C0 139.629 40.3743 180 90 180C139.626 180 180 139.629 180 90C180 40.3712 139.626 0 90 0ZM90 174.193C43.5749 174.193 5.80694 136.422 5.80694 90C5.80694 79.0537 7.92854 68.5981 11.745 58.9961L15.694 61.5993V69.4029L18.9602 75.9353L25.1299 75.03V78.2947L28.7588 83.9187L37.4677 85.7324L44.0002 87.5492L46.5409 91.7192L50.5326 95.5296L51.441 91.3595L49.263 90L49.6257 85.0069H46.358L44.3629 82.2848L46.7223 81.3795L47.4478 78.2947L46.1782 76.1152L38.1932 79.9255H34.9285L36.381 73.3931L41.0982 66.318H50.714L51.8037 71.0337L55.0684 73.3931L56.338 66.4979C56.338 66.4979 65.0484 65.2298 65.0484 59.6027C65.0484 53.9787 78.8388 47.2633 78.8388 47.2633L79.203 43.8188L85.734 43.453L91.5409 48.3546H94.263L93.1732 44.5443H91.1782L91.358 42.9104L93.536 41.0936L93.9003 38.3746L91.1782 36.0152L90.8154 33.6559L88.4561 32.5677L84.1016 34.1985V30.9338L82.4677 29.4828L75.5726 30.0285L75.2113 34.7441L70.8554 36.0152L69.0401 41.0936H67.045L66.318 35.4696H61.2381L60.1499 30.9338L71.401 25.3097V28.2147H73.7588L80.654 22.4047L84.1016 22.9504L83.556 26.9436H89.1815H93.536L96.441 22.7705H92.9934L88.4561 18.5334H79.9285L78.3556 15.9942L69.4029 15.2688V18.5334L64.5653 22.7705H60.4517L57.5482 18.6554V14.2994H53.1831C64.3108 8.86435 76.8041 5.80694 90 5.80694C111.246 5.80694 130.662 13.7324 145.492 26.7607H143.436L142.166 30.7539V32.5677L144.978 33.473L146.338 35.1099H149.786L148.88 37.6491H142.166L139.444 43.6359H135.453L134.485 46.4799L137.146 48.1748L135.815 50.2293C135.815 50.2293 131.098 49.3788 130.734 49.5038C130.371 49.6227 127.227 50.714 127.227 50.714L125.413 54.3445C125.413 54.3445 124.567 55.7985 125.413 55.9143C126.259 56.0332 128.678 58.2097 128.678 58.2097C128.678 58.2097 135.453 58.6943 135.815 58.2097C136.178 57.728 139.685 52.043 139.685 52.043L143.316 51.3145L145.251 48.7753L146.58 50.2293C146.58 50.2293 147.309 52.8935 147.912 53.3751C148.516 53.8567 151.179 55.4296 151.179 55.4296C151.179 55.4296 151.543 57.9658 152.026 57.85C152.508 57.728 157.106 57.85 157.106 57.4842C157.106 57.1245 154.565 53.7378 154.565 53.7378L153.355 50.714L151.543 47.4493L154.323 46.2361L156.381 48.2936C156.381 48.2936 157.226 50.9548 157.106 50.9548C156.986 50.9548 159.888 51.4395 160.008 51.7992C160.13 52.1649 160.13 54.2774 160.008 54.9145C159.888 55.5546 163.155 58.4261 163.155 58.4261L164.849 57.4842L163.276 53.494L164.788 51.4029C167.126 55.9143 169.075 60.6544 170.573 65.5925H167.145L162.55 61.8401L159.282 62.3248V64.7451H155.291C155.291 64.7451 148.758 62.5687 148.153 63.1722C147.548 63.7788 148.153 58.4261 148.153 58.4261L141.741 57.728C141.741 57.728 135.815 60.1453 135.453 60.3892C135.088 60.633 129.283 60.5111 129.283 60.5111L125.037 62.8095L123.598 68.9792L116.46 73.8168L118.033 76.9626L118.518 79.8676L116.46 80.4711L115.855 88.5765L122.267 96.5599L131.703 98.2547L132.308 95.5296H135.575L136.904 96.9226L144.404 98.2547L148.153 105.33L154.142 115.49L149.423 122.025L151.058 128.375C151.058 128.375 154.323 127.469 154.323 128.375C154.323 129.28 153.779 131.094 153.597 132.91C153.416 134.724 155.048 137.989 155.048 137.989L155.775 141.619L155.92 142.284C140.482 161.707 116.678 174.193 90 174.193Z" fill="#808080"/>
<path d="M134.191 36.1981V39.9475C134.191 39.9475 138.356 39.8256 138.478 39.4628C138.6 39.1001 137.994 36.5578 137.994 36.5578L137.267 33.1712C137.267 33.1712 135.331 31.1136 135.21 30.9948C135.09 30.8698 129.888 30.9948 129.888 30.9948L130.614 33.1712L134.191 36.1981Z" fill="#808080"/>
<path d="M128.678 40.9138C128.678 39.9475 132.309 38.4935 132.309 38.4935V36.4389C132.309 36.4389 130.251 35.9542 129.888 35.4421L126.259 38.3929V40.9138C126.259 40.9138 128.678 41.8801 128.678 40.9138Z" fill="#808080"/>
<path d="M101.338 104.238L88.6376 105.51L87.0053 100.974L87.368 98.9802L85.9155 95.5296H79.9287L79.1118 91.3595L75.2116 90L73.3963 91.7192L68.6791 91.3595L67.0453 89.0002L61.4212 87.1255L55.8566 93.1763V98.9802C55.8566 98.9802 51.2583 100.37 51.2583 101.855C51.2583 103.336 51.2583 111.323 51.2583 111.323L57.3076 118.334C57.3076 118.334 56.5806 121.482 57.3076 121.482C58.0331 121.482 61.4212 123.415 61.4212 123.415L65.291 125.838V139.988L67.9536 140.894L65.7757 148.335L69.7658 152.87L68.6791 158.677C68.6791 158.677 72.6708 166.478 73.2134 166.661C73.7591 166.844 79.2033 170.834 79.2033 170.834H83.3763V168.115C83.3763 168.115 78.1135 165.03 78.6576 164.844C79.2033 164.664 80.4729 161.945 80.4729 161.945L78.1135 160.308L77.2066 157.589L79.9287 156.318L80.1086 154.684L77.5694 154.504L77.9321 152.508L82.468 151.965C82.468 151.965 86.0984 149.603 86.4612 148.88C86.8239 148.155 90.4529 139.988 92.9936 139.988C95.5328 139.988 92.0852 133.453 92.0852 133.453L92.9936 131.822L98.6177 131.639L101.703 130.008V118.395L104.786 116.035L106.964 111.679L104.062 108.96L101.338 104.238Z" fill="#808080"/>
</svg>
