<svg width="82" height="60" viewBox="0 0 82 60" fill="none" xmlns="http://www.w3.org/2000/svg">
<g clip-path="url(#clip0_3576_59881)">
<path d="M21.9404 1.46887V13.8683H32.1823L56.8569 38.7969L37.132 58.6344L1.24268 22.3757L21.9404 1.46887Z" fill="#191919" stroke="#191919" stroke-width="2.50562" stroke-linejoin="round"/>
<path d="M31.9907 42.8449L41.7656 52.7204" stroke="#191919" stroke-width="2.50562" stroke-miterlimit="10"/>
<path d="M36.1807 38.6128L45.9556 48.4883" stroke="#191919" stroke-width="2.50562" stroke-miterlimit="10"/>
<path d="M40.9082 33.826L50.687 43.7054" stroke="#191919" stroke-width="2.50562" stroke-miterlimit="10"/>
<path d="M21.9395 1.4694V13.8688H32.1813L56.856 38.7974L73.1488 22.333L52.2837 1.25317L21.9395 1.4694Z" fill="#191919" stroke="#191919" stroke-width="2.50562" stroke-linejoin="round"/>
<path d="M30.5386 13.7954H44.3643" stroke="#191919" stroke-width="2.50562" stroke-miterlimit="10"/>
<path d="M29.3633 1.57159V13.971H39.6052L64.2798 38.8996L44.5588 58.7371L8.66943 22.4824L29.3633 1.57159Z" fill="white" stroke="#191919" stroke-width="2.50562" stroke-linejoin="round"/>
<path d="M39.4136 42.9425L49.1924 52.818" stroke="#191919" stroke-width="2.50562" stroke-miterlimit="10"/>
<path d="M43.606 38.7155L53.3809 48.591" stroke="#191919" stroke-width="2.50562" stroke-miterlimit="10"/>
<path d="M48.3335 33.9493L58.1123 43.8248" stroke="#191919" stroke-width="2.50562" stroke-miterlimit="10"/>
<path d="M29.3638 1.57331V13.9727H39.6056L64.2803 38.9013L80.5731 22.4408L59.708 1.36102L29.3638 1.57331Z" fill="white" stroke="#191919" stroke-width="2.50562" stroke-linejoin="round"/>
<path d="M37.9639 13.8981H51.7896" stroke="#191919" stroke-width="2.50562" stroke-miterlimit="10"/>
</g>
<defs>
<clipPath id="clip0_3576_59881">
<rect width="81.8182" height="60" fill="white"/>
</clipPath>
</defs>
</svg>
