<svg width="20" height="20" viewBox="0 0 20 20" fill="none" xmlns="http://www.w3.org/2000/svg">
<path fill-rule="evenodd" clip-rule="evenodd" d="M3.172 5.17037C3.92211 4.42049 4.93934 3.99923 6 3.99923C7.06066 3.99923 8.07789 4.42049 8.828 5.17037L10 6.34137L11.172 5.17037C11.541 4.78833 11.9824 4.4836 12.4704 4.27397C12.9584 4.06433 13.4833 3.95399 14.0144 3.94937C14.5455 3.94475 15.0722 4.04596 15.5638 4.24708C16.0554 4.44821 16.502 4.74522 16.8776 5.12079C17.2531 5.49636 17.5502 5.94297 17.7513 6.43456C17.9524 6.92614 18.0536 7.45286 18.049 7.98398C18.0444 8.51509 17.934 9.03997 17.7244 9.52799C17.5148 10.016 17.21 10.4574 16.828 10.8264L10 17.6554L3.172 10.8264C2.42212 10.0763 2.00085 9.05903 2.00085 7.99837C2.00085 6.93771 2.42212 5.92048 3.172 5.17037V5.17037Z" stroke="#475467" stroke-width="1.66667" stroke-linejoin="round"/>
</svg>
