<svg width="40" height="41" viewBox="0 0 40 41" fill="none" xmlns="http://www.w3.org/2000/svg">
<g id="help-square-contained">
<path id="Icon" d="M20 27.9999V28.0658M16.2516 15.8833C16.2516 13.7731 17.9306 12.0625 20.0016 12.0625C22.0727 12.0625 23.7516 13.7731 23.7516 15.8833C23.7516 17.9934 22.0727 19.7041 20.0016 19.7041C20.0016 19.7041 20 20.8445 20 22.2513M35 11.125L35 29.875C35 32.9816 32.4816 35.5 29.375 35.5H10.625C7.5184 35.5 5 32.9816 5 29.875V11.125C5 8.01838 7.5184 5.5 10.625 5.5H29.375C32.4816 5.5 35 8.01838 35 11.125Z" stroke="#93370D" stroke-width="3.33333" stroke-linecap="round" stroke-linejoin="round"/>
</g>
</svg>
