<svg width="41" height="50" viewBox="0 0 41 50" fill="none" xmlns="http://www.w3.org/2000/svg">
<path d="M38.9281 41.3792V43.1033H37.204V46.5516H35.4799V48.2758H32.0316V49.9999H30.3075V48.2758H28.5833V46.5516H26.8592V44.8275H25.135V43.1033H23.4109V39.6551H21.6868V27.5861H23.4109H25.135V36.2068H26.8592V27.5861H25.135V25.862H23.4109V10.3447H26.8592V20.6896H28.5833V27.5861H30.3075V34.4827H32.0316V36.2068H33.7557V37.9309H35.4799V39.6551H37.204V41.3792H38.9281Z" fill="#4BA306"/>
<path d="M19.9626 27.5861V39.6551H18.2384V43.1033H16.5143V44.8275H14.7902V46.5516H13.066V48.2758H11.3419V49.9999H9.61774V48.2758H6.16947V46.5516H4.44533V43.1033H2.72119V41.3792H4.44533V39.6551H6.16947V37.9309H7.89361V36.2068H9.61774V34.4827H11.3419V27.5861H13.066V20.6896H14.7902V10.3447H18.2384V25.862H16.5143V27.5861H14.7902V36.2068H16.5143V27.5861H18.2384H19.9626Z" fill="#4BA306"/>
<path d="M21.6868 0H19.9626V5.17241H21.6868V0Z" fill="#4BA306"/>
<path d="M30.3074 3.44824H28.5833V5.17238H30.3074V3.44824Z" fill="#4BA306"/>
<path d="M32.0315 1.72412H30.3074V3.44826H32.0315V1.72412Z" fill="#4BA306"/>
<path d="M13.0659 3.44824H11.3418V5.17238H13.0659V3.44824Z" fill="#4BA306"/>
<path d="M11.3418 1.72412H9.61768V3.44826H11.3418V1.72412Z" fill="#4BA306"/>
<path d="M35.4798 8.62061H33.7556V10.3447H35.4798V8.62061Z" fill="#4BA306"/>
<path d="M37.2041 6.89648H35.48V8.62062H37.2041V6.89648Z" fill="#4BA306"/>
<path d="M38.928 5.17261H37.2039V6.89675H38.928V5.17261Z" fill="#4BA306"/>
<path d="M7.89357 8.62061H6.16943V10.3447H7.89357V8.62061Z" fill="#4BA306"/>
<path d="M6.16945 22.4138H4.44531V24.138H6.16945V22.4138Z" fill="#4BA306"/>
<path d="M37.2041 22.4138H35.48V24.138H37.2041V22.4138Z" fill="#4BA306"/>
<path d="M40.6521 25.8623H38.928V27.5864H40.6521V25.8623Z" fill="#4BA306"/>
<path d="M38.928 24.1377H37.2039V25.8618H38.928V24.1377Z" fill="#4BA306"/>
<path d="M4.44533 24.1377H2.72119V25.8618H4.44533V24.1377Z" fill="#4BA306"/>
<path d="M2.72121 25.8623H0.99707V27.5864H2.72121V25.8623Z" fill="#4BA306"/>
<path d="M6.16945 6.89648H4.44531V8.62062H6.16945V6.89648Z" fill="#4BA306"/>
<path d="M4.44533 5.17261H2.72119V6.89675H4.44533V5.17261Z" fill="#4BA306"/>
<path d="M40.6524 15.5171H35.48V17.2412H40.6524V15.5171Z" fill="#4BA306"/>
<path d="M6.16948 15.5171H0.99707V17.2412H6.16948V15.5171Z" fill="#4BA306"/>
</svg>
