<svg width="18" height="18" viewBox="0 0 18 18" fill="none" xmlns="http://www.w3.org/2000/svg">
<path d="M7.36835 13.4357H11.0066M12.9215 15.75H5.45346C5.03043 15.75 4.6875 15.4046 4.6875 14.9786V12.9178C4.6875 12.7531 4.73982 12.5928 4.83682 12.4602L7.03356 9.45761C7.23265 9.18548 7.23265 8.81452 7.03356 8.54239L4.83682 5.53981C4.73982 5.40723 4.6875 5.24688 4.6875 5.0822V3.02143C4.6875 2.59538 5.03043 2.25 5.45346 2.25H12.7301C13.1531 2.25 13.496 2.59538 13.496 3.02143V5.09706C13.496 5.25253 13.4494 5.40437 13.3622 5.53268L11.3138 8.54784C11.1299 8.81861 11.1361 9.17694 11.3293 9.44106L13.5382 12.4602C13.6352 12.5928 13.6875 12.7531 13.6875 12.9178V14.9786C13.6875 15.4046 13.3446 15.75 12.9215 15.75Z" stroke="#1D2939" stroke-width="1.5" stroke-linecap="round" stroke-linejoin="round"/>
</svg>
