<svg width="60" height="41" viewBox="0 0 60 41" fill="none" xmlns="http://www.w3.org/2000/svg">
<rect width="20.0007" height="20.0279" transform="matrix(1 -4.37707e-08 -4.36522e-08 -1 0.00488281 20.0569)" fill="#7EFF5F"/>
<rect width="9.60035" height="9.61338" transform="matrix(1 -4.38305e-08 -4.35926e-08 -1 5.20215 14.8506)" fill="#6AF244"/>
<rect width="4.80018" height="4.80669" transform="matrix(1 -4.38305e-08 -4.35926e-08 -1 9.88965 14.8506)" fill="#60E535"/>
<rect width="20.0007" height="20.0279" transform="matrix(1 -4.37707e-08 -4.36522e-08 -1 20.0049 20.0559)" fill="#7EFF5F"/>
<rect width="9.60035" height="9.61338" transform="matrix(1 -4.38305e-08 -4.35926e-08 -1 25.2021 14.8486)" fill="#6AF244"/>
<rect width="4.80018" height="4.80669" transform="matrix(1 -4.38305e-08 -4.35926e-08 -1 29.8896 14.8486)" fill="#60E535"/>
<rect width="20.0007" height="20.0279" transform="matrix(1 -4.37707e-08 -4.36522e-08 -1 0.00488281 40.085)" fill="#7EFF5F"/>
<rect width="9.60035" height="9.61338" transform="matrix(1 -4.38305e-08 -4.35926e-08 -1 5.20215 34.8777)" fill="#6AF244"/>
<rect width="4.80018" height="4.80669" transform="matrix(1 -4.38305e-08 -4.35926e-08 -1 9.88965 34.8777)" fill="#60E535"/>
<rect width="20.0279" height="20.0007" transform="matrix(-8.73043e-08 -1 -1 8.75414e-08 60.001 20.0278)" fill="#7EFF5F"/>
<rect width="9.61338" height="9.60035" transform="matrix(-8.73043e-08 -1 -1 8.75414e-08 54.8057 14.8196)" fill="#6AF244"/>
<rect width="4.80669" height="4.80018" transform="matrix(-8.71852e-08 -1 -1 8.7661e-08 54.8057 10.1248)" fill="#60E535"/>
</svg>
