<svg width="28" height="32" viewBox="0 0 28 32" fill="none" xmlns="http://www.w3.org/2000/svg">
<path d="M24.6702 10.6602H27.333V21.3398H24.6702V10.6602ZM22.0061 21.3398H24.6702L24.6696 24.0032H22.0061V21.3398ZM19.3234 24.0032H22.0061V26.6731H16.6599V29.3365H22.0061V32H5.99327V29.3365H11.3272V26.6731H5.99327V24.0032H8.66314V21.3398H11.3266V24.0032H16.6599V21.3398H19.3234V24.0032ZM8.66314 2.66346V0H19.3234V2.66346H8.66314ZM8.66314 18.6763H19.3234V21.3398H22.0061V18.6763V2.66346H19.3234V5.33333H8.66314V2.66346H5.99327V21.3398H8.66314V18.6763ZM8.66314 7.99679H19.3234V10.6602H8.66314V7.99679ZM8.66314 13.343H19.3234V16.0064H8.66314V13.343ZM5.99327 21.3398V24.0032H3.33045V21.3398H5.99327ZM3.33045 21.3398H0.666992V10.6602H3.33045V21.3398Z" fill="#4BA306"/>
</svg>
