<svg width="400" height="250" viewBox="0 0 400 250" fill="none" xmlns="http://www.w3.org/2000/svg">
<rect x="237.459" y="106.938" width="14.9127" height="15.0629" fill="#189647"/>
<rect x="85.4551" y="104.219" width="14.9127" height="120.503" fill="#08B74F"/>
<rect x="89.8984" y="305.578" width="201.367" height="222.121" transform="rotate(-90 89.8984 305.578)" fill="#08B74F"/>
<rect x="297.109" y="104.219" width="14.9127" height="120.503" fill="#189647"/>
<path d="M276 160H122V172H276V160Z" fill="#60F59C"/>
<path d="M276 184H122V196H276V184Z" fill="#60F59C"/>
<path d="M276 136H122V148H276V136Z" fill="#60F59C"/>
<rect x="64" y="322.562" width="145.872" height="14.1279" transform="rotate(-90 64 322.562)" fill="#333333"/>
<rect x="319.873" y="322.562" width="145.872" height="14.1279" transform="rotate(-90 319.873 322.562)" fill="#333333"/>
<rect x="72.6348" y="176.688" width="59.6509" height="145.872" fill="#333333"/>
<rect x="132.283" y="191.75" width="14.9127" height="130.809" fill="#333333"/>
<rect width="14.9127" height="90.3775" transform="matrix(1 0 0 -1 206.85 327.312)" fill="#333333"/>
<rect x="147.197" y="206.812" width="14.9127" height="115.747" fill="#333333"/>
<rect width="14.9127" height="105.44" transform="matrix(1 0 0 -1 221.762 327.312)" fill="#333333"/>
<rect x="162.113" y="221.875" width="14.9127" height="105.44" fill="#333333"/>
<rect width="14.9127" height="115.747" transform="matrix(1 0 0 -1 236.674 322.562)" fill="#333333"/>
<rect x="177.025" y="236.938" width="14.9127" height="90.3775" fill="#333333"/>
<rect width="14.9127" height="130.809" transform="matrix(1 0 0 -1 251.586 322.562)" fill="#333333"/>
<rect width="62.0056" height="145.872" transform="matrix(1 0 0 -1 266.502 322.562)" fill="#333333"/>
<rect x="319.873" y="322.562" width="148.251" height="14.1279" transform="rotate(-90 319.873 322.562)" fill="#191919"/>
<rect width="14.9127" height="15.0629" transform="matrix(1 0 0 -1 191.938 264.688)" fill="#191919"/>
<rect width="14.9127" height="15.0629" transform="matrix(1 0 0 -1 206.85 249.625)" fill="#191919"/>
<rect width="14.9127" height="15.0629" transform="matrix(1 0 0 -1 221.76 234.562)" fill="#191919"/>
<rect width="14.9127" height="15.0629" transform="matrix(1 0 0 -1 236.672 219.5)" fill="#191919"/>
<rect width="14.9127" height="15.0629" transform="matrix(1 0 0 -1 251.588 204.438)" fill="#191919"/>
<rect x="191.938" y="249.625" width="14.9127" height="15.0629" fill="#191919"/>
<rect x="155.83" y="89.4688" width="57.5017" height="14.7369" fill="#333333"/>
<rect x="170.422" y="74.7344" width="28.3217" height="14.7369" fill="#333333"/>
<rect x="184.15" y="60" width="14.9127" height="15.0629" fill="#191919"/>
<rect x="198.742" y="74.7344" width="14.9127" height="15.0629" fill="#191919"/>
<rect x="213.334" y="89.125" width="14.9127" height="15.0629" fill="#191919"/>
<rect width="62.0056" height="15.0629" transform="matrix(1 0 0 -1 266.5 189.375)" fill="#191919"/>
<rect x="94.8965" y="230.781" width="9.60189" height="9.69858" fill="#7EFF5F"/>
<rect x="104.498" y="240.469" width="9.60189" height="9.69858" fill="#46B4FF"/>
<rect x="114.098" y="230.781" width="9.60189" height="9.69858" fill="#0357D4"/>
</svg>
