<svg width="18" height="18" viewBox="0 0 18 18" fill="none" xmlns="http://www.w3.org/2000/svg">
<path d="M16.875 4.5H15.75H14.625H13.5H12.375V3.375H11.25V2.25V1.125H10.125V0H9H7.875V1.125H6.75V2.25V3.375H5.625V4.5H4.5H3.375H2.25H1.125H0V5.625V6.75H1.125V7.875H2.25V9H3.375V10.125V11.25H2.25V12.375V13.5H1.125V14.625V15.75H0V16.875V18H1.125H2.25H3.375V16.875H4.5H5.625V15.75H6.75H7.875V14.625H9H10.125V15.75H11.25H12.375V16.875H13.5H14.625V18H15.75H16.875H18V16.875V15.75H16.875V14.625V13.5H15.75V12.375V11.25H14.625V10.125V9H15.75V7.875H16.875V6.75H18V5.625V4.5H16.875Z" fill="#4BA306"/>
</svg>
