<svg width="48" height="48" viewBox="0 0 48 48" fill="none" xmlns="http://www.w3.org/2000/svg">
<g clip-path="url(#clip0_1108_44)">
<path d="M48 43.425H43.425V45.72H48V43.425Z" fill="black"/>
<path d="M43.425 45.72H41.145V48H43.425V45.72Z" fill="black"/>
<path d="M41.145 29.715H38.85V31.995H41.145V34.29H43.425V22.86H41.145V29.715Z" fill="black"/>
<path d="M41.145 43.425H36.57V45.72H41.145V43.425Z" fill="black"/>
<path d="M41.145 20.58H38.85V22.86H41.145V20.58Z" fill="black"/>
<path d="M36.57 41.145H31.995V43.425H36.57V41.145Z" fill="black"/>
<path d="M34.29 31.9951H36.57V29.7151H38.85V27.4351H36.57V20.5801H38.85V18.2851H36.57V11.4301H34.29V31.9951Z" fill="black"/>
<path d="M31.995 45.72H29.715V48H31.995V45.72Z" fill="black"/>
<path d="M31.995 27.4351H29.715V29.7151H31.995V27.4351Z" fill="black"/>
<path d="M31.995 22.86H29.715V25.14H31.995V22.86Z" fill="black"/>
<path d="M29.715 41.145H27.42V45.72H29.715V41.145Z" fill="black"/>
<path d="M29.715 36.5699H20.565V38.8649H29.715V36.5699Z" fill="black"/>
<path d="M29.715 2.28003H27.42V4.57503H29.715V2.28003Z" fill="black"/>
<path d="M27.42 0H22.86V2.28H27.42V0Z" fill="black"/>
<path d="M29.715 13.7101H27.42V11.4301H22.86V13.7101H25.14V16.0051H22.86V13.7101H20.565V18.2851H22.86V20.5801H27.42V18.2851H29.715V13.7101Z" fill="black"/>
<path d="M22.86 41.145H20.565V45.72H22.86V41.145Z" fill="black"/>
<path d="M15.99 34.29H18.285V36.57H20.565V34.29H29.715V36.57H31.995V34.29H34.29V31.995H15.99V34.29Z" fill="black"/>
<path d="M22.86 2.28003H20.565V4.57503H22.86V2.28003Z" fill="black"/>
<path d="M20.565 45.72H18.285V48H20.565V45.72Z" fill="black"/>
<path d="M18.285 41.145H13.71V43.425H18.285V41.145Z" fill="black"/>
<path d="M20.565 6.85495V4.57495H18.285V6.85495H15.99V11.43H18.285V9.14995H31.995V11.43H34.29V6.85495H31.995V4.57495H29.715V6.85495H20.565Z" fill="black"/>
<path d="M15.99 11.4301H13.71V18.2851H11.43V20.5801H13.71V27.4351H11.43V29.7151H13.71V31.9951H15.99V11.4301Z" fill="black"/>
<path d="M13.71 43.425H9.13501V45.72H13.71V43.425Z" fill="black"/>
<path d="M11.43 20.58H9.13501V22.86H11.43V20.58Z" fill="black"/>
<path d="M9.13498 45.72H6.85498V48H9.13498V45.72Z" fill="black"/>
<path d="M9.13498 22.86H6.85498V34.29H9.13498V31.995H11.43V29.715H9.13498V22.86Z" fill="black"/>
<path d="M6.855 43.425H2.28V45.72H6.855V43.425Z" fill="black"/>
<path d="M2.28 45.72H0V48H2.28V45.72Z" fill="black"/>
</g>
<defs>
<clipPath id="clip0_1108_44">
<rect width="48" height="48" fill="white"/>
</clipPath>
</defs>
</svg>
