<svg width="180" height="137" viewBox="0 0 180 137" fill="none" xmlns="http://www.w3.org/2000/svg">
<path d="M90.0056 80.662C104.51 80.662 114.362 68.902 114.362 54.396C114.362 39.894 104.51 28.134 90.0056 28.134C75.4996 28.134 65.6416 39.892 65.6416 54.396C65.6416 68.9 75.4996 80.662 90.0056 80.662Z" fill="#808080"/>
<path d="M124.974 133.79C128.698 129.498 130.98 121.99 131.3 115.29C131.3 99.896 122.882 86.534 110.432 79.384C105.062 84.286 97.9802 87.188 90.0002 87.188C82.0242 87.188 74.9402 84.286 69.5682 79.384C57.1162 86.534 48.7002 99.896 48.7002 115.29C49.0162 121.99 51.3042 129.498 55.0242 133.79C58.5942 138.128 123.626 137.81 124.974 133.79Z" fill="#808080"/>
<path d="M138.706 52.53C153.208 52.53 163.066 40.768 163.066 26.264C163.066 11.762 153.208 0 138.706 0C124.198 0 114.34 11.76 114.34 26.264C114.34 40.768 124.198 52.53 138.706 52.53Z" fill="#808080"/>
<path d="M41.3025 52.53C55.8065 52.53 65.6645 40.768 65.6645 26.264C65.6645 11.762 55.8065 0 41.3025 0C26.7965 0 16.9385 11.76 16.9385 26.264C16.9405 40.768 26.7965 52.53 41.3025 52.53Z" fill="#808080"/>
<path d="M159.132 51.25C153.764 56.154 146.684 59.056 138.704 59.056C131.72 59.056 125.418 56.832 120.356 52.986C120.372 53.454 120.388 53.922 120.388 54.394C120.388 62.154 118.058 69.106 114.076 74.558C126.538 81.984 134.884 94.672 136.864 108.788C154.61 108.864 172.968 107.774 173.676 105.658C177.4 101.366 179.684 93.858 180 87.158C180 71.764 171.584 58.402 159.132 51.25Z" fill="#808080"/>
<path d="M43.136 108.786C45.116 94.668 53.46 81.982 65.928 74.556C61.946 69.106 59.616 62.156 59.616 54.394C59.616 53.922 59.63 53.454 59.648 52.986C54.586 56.83 48.286 59.056 41.304 59.056C33.326 59.056 26.242 56.154 20.872 51.25C8.42 58.402 0 71.762 0 87.158C0.32 93.858 2.604 101.366 6.328 105.658C8.146 107.87 25.948 108.87 43.136 108.786Z" fill="#808080"/>
</svg>
