<svg width="40" height="41" viewBox="0 0 40 41" fill="none" xmlns="http://www.w3.org/2000/svg">
<g id="thumb-down">
<path id="Vector" d="M28.3318 7.16667L22.0651 5.6C21.8008 5.53375 21.5293 5.50017 21.2568 5.5H14.5601C13.941 5.50002 13.334 5.67249 12.8074 5.99807C12.2808 6.32365 11.8552 6.78948 11.5784 7.34333L5.74511 19.01C5.49116 19.5182 5.37132 20.0829 5.39695 20.6504C5.42258 21.2179 5.59284 21.7695 5.89157 22.2527C6.19029 22.736 6.60756 23.1348 7.10377 23.4115C7.59998 23.6881 8.15866 23.8333 8.72678 23.8333H16.6668H20.0001M28.3318 7.16667L28.3334 22.1667L22.6801 30.6467C22.0184 31.6383 21.6668 32.8017 21.6668 33.9933C21.6668 34.825 20.9918 35.5 20.1584 35.5H19.9984C19.1144 35.5 18.2665 35.1488 17.6414 34.5237C17.0163 33.8986 16.6651 33.0507 16.6651 32.1667V23.8333M28.3318 7.16667H31.6668C32.5508 7.16667 33.3987 7.51786 34.0238 8.14298C34.6489 8.7681 35.0001 9.61594 35.0001 10.5V20.5C35.0001 21.3841 34.6489 22.2319 34.0238 22.857C33.3987 23.4821 32.5508 23.8333 31.6668 23.8333H27.5001" stroke="#912018" stroke-width="3.33333" stroke-linecap="round" stroke-linejoin="round"/>
</g>
</svg>
