<svg width="40" height="41" viewBox="0 0 40 41" fill="none" xmlns="http://www.w3.org/2000/svg">
<g id="thumb-up">
<path id="Vector" d="M23.3333 17.1667H31.2733C31.8414 17.1667 32.4001 17.3119 32.8963 17.5885C33.3925 17.8652 33.8098 18.264 34.1085 18.7473C34.4073 19.2305 34.5775 19.7821 34.6032 20.3496C34.6288 20.9171 34.5089 21.4818 34.255 21.99L28.4217 33.6567C28.1448 34.2108 27.719 34.6768 27.192 35.0024C26.665 35.328 26.0578 35.5003 25.4383 35.5H18.7433C18.4717 35.5 18.2 35.4667 17.935 35.4L11.6667 33.8333M23.3333 17.1667V8.83333C23.3333 7.94928 22.9821 7.10143 22.357 6.47631C21.7319 5.85119 20.8841 5.5 20 5.5H19.8417C19.0083 5.5 18.3333 6.175 18.3333 7.00833C18.3333 8.19833 17.9817 9.36167 17.32 10.3517L11.6667 18.8333V33.8333M23.3333 17.1667H20M11.6667 33.8333H8.33333C7.44928 33.8333 6.60143 33.4821 5.97631 32.857C5.35119 32.2319 5 31.3841 5 30.5V20.5C5 19.6159 5.35119 18.7681 5.97631 18.143C6.60143 17.5179 7.44928 17.1667 8.33333 17.1667H12.5" stroke="#015828" stroke-width="3.33333" stroke-linecap="round" stroke-linejoin="round"/>
</g>
</svg>
