<svg width="18" height="19" viewBox="0 0 18 19" fill="none" xmlns="http://www.w3.org/2000/svg">
<path d="M1.0498 17.1953C1.04976 17.6095 1.38551 17.9454 1.79972 17.9454C2.21393 17.9455 2.54976 17.6097 2.5498 17.1955L1.0498 17.1953ZM1.80011 14.4951L2.55011 14.4952L1.80011 14.4951ZM9.4498 12.5454C9.86402 12.5454 10.1998 12.2096 10.1998 11.7954C10.1998 11.3812 9.86402 11.0454 9.4498 11.0454V12.5454ZM16.1998 13.4454C16.614 13.4454 16.9498 13.1096 16.9498 12.6954C16.9498 12.2812 16.614 11.9454 16.1998 11.9454V13.4454ZM12.1498 11.9454C11.7356 11.9454 11.3998 12.2812 11.3998 12.6954C11.3998 13.1096 11.7356 13.4454 12.1498 13.4454V11.9454ZM13.4248 14.7203C13.4248 15.1345 13.7606 15.4703 14.1748 15.4703C14.589 15.4703 14.9248 15.1345 14.9248 14.7203H13.4248ZM14.9248 10.6703C14.9248 10.2561 14.589 9.9203 14.1748 9.9203C13.7606 9.9203 13.4248 10.2561 13.4248 10.6703H14.9248ZM10.0498 5.49541C10.0498 6.57236 9.17676 7.44541 8.0998 7.44541V8.94541C10.0052 8.94541 11.5498 7.40079 11.5498 5.49541H10.0498ZM8.0998 7.44541C7.02285 7.44541 6.1498 6.57237 6.1498 5.49541H4.6498C4.6498 7.40079 6.19442 8.94541 8.0998 8.94541V7.44541ZM6.1498 5.49541C6.1498 4.41845 7.02285 3.54541 8.0998 3.54541V2.04541C6.19442 2.04541 4.6498 3.59003 4.6498 5.49541H6.1498ZM8.0998 3.54541C9.17676 3.54541 10.0498 4.41845 10.0498 5.49541H11.5498C11.5498 3.59003 10.0052 2.04541 8.0998 2.04541V3.54541ZM2.5498 17.1955L2.55011 14.4952L1.05011 14.495L1.0498 17.1953L2.5498 17.1955ZM4.50011 11.0454C2.59488 11.0454 1.05032 12.5898 1.05011 14.495L2.55011 14.4952C2.55023 13.4183 3.42324 12.5454 4.50011 12.5454V11.0454ZM4.50011 12.5454H9.4498V11.0454H4.50011V12.5454ZM16.1998 11.9454H14.1748V13.4454H16.1998V11.9454ZM14.1748 11.9454H12.1498V13.4454H14.1748V11.9454ZM14.9248 14.7203V12.6954H13.4248V14.7203H14.9248ZM14.9248 12.6954V10.6703H13.4248V12.6954H14.9248Z" fill="white"/>
</svg>
