<svg width="84" height="65" viewBox="0 0 84 65" fill="none" xmlns="http://www.w3.org/2000/svg">
    <g clip-path="url(#clip0_0_38)">
        <path
            d="M15.4007 33.2411H10.4915V9.31361H22.5639V14.2018H15.4007V18.8237H22.5639V23.7119H15.4007V33.2411Z"
            fill="white" />
        <path
            d="M29.7273 28.3338H34.3691V14.2018H29.7273V28.3338ZM27.2058 33.241V30.8445H24.8181V11.6911H27.2058V9.31359H36.8905V11.6911H39.2783V30.8445H36.8905V33.241H27.2058ZM24.9518 9.38968H27.2058V11.6911H24.9518V9.38968ZM36.8905 9.31352H39.2783V11.6911H36.8905V9.31352ZM36.8905 30.8444H39.2783V33.1649H36.8905V30.8444ZM24.8181 30.8444H27.2058V33.241H24.8181V30.8444Z"
            fill="white" />
        <path
            d="M53.6048 33.241H41.5323V28.3338H51.0834V23.7119H43.9201V21.3344H41.5323V11.6911H43.9201V9.31358H55.9926V14.2018H46.4416V18.8237H53.6048V21.2012H55.9926V30.8445H53.6048V33.241ZM41.6661 9.38967H43.9201V11.6911H41.6661V9.38967ZM41.5324 21.3344H43.9201V23.7119H41.5324V21.3344ZM53.6048 18.8237H55.9926V21.2012H53.6048V18.8237ZM53.6048 30.8445H55.9926V33.165H53.6048V30.8445Z"
            fill="white" />
        <path
            d="M70.3191 33.241H58.2466V28.3338H67.7977V23.7119H60.6344V21.3344H58.2466V11.6911H60.6344V9.31358H72.7069V14.2018H63.1559V18.8237H70.3191V21.2012H72.7069V30.8445H70.3191V33.241ZM58.3804 9.38967H60.6344V11.6911H58.3804V9.38967ZM58.2466 21.3344H60.6344V23.7119H58.2466V21.3344ZM70.3191 18.8237H72.7069V21.2012H70.3191V18.8237ZM70.3191 30.8445H72.7069V33.165H70.3191V30.8445Z"
            fill="white" />
        <path
            d="M12.216 55.0998V53.365H10.4904V37.7794H14.0382V51.5476H17.3927V37.7794H20.9405V53.365H19.2149V55.0998H12.216ZM10.4904 53.365H12.216V55.0998H10.4904V53.365ZM19.2149 53.365H20.9405V55.0447H19.2149V53.365Z"
            fill="white" />
        <path d="M26.1173 55.0998H22.5695V37.7794H33.0196V55.0998H29.4718V41.3178H26.1173V55.0998Z"
            fill="white" />
        <path d="M38.1964 55.0998H34.6486V37.7794H38.1964V55.0998Z" fill="white" />
        <path d="M46.8243 55.0998H43.2765V41.3178H39.8253V37.7794H50.2755V41.3178H46.8243V55.0998Z"
            fill="white" />
        <path
            d="M60.6289 55.0998H51.9044V37.7794H60.6289V41.3178H55.4522V44.6635H60.6289V48.2019H55.4522V51.5476H60.6289V55.0998Z"
            fill="white" />
        <path
            d="M65.8057 51.5476H69.1603V41.3178H65.8057V51.5476ZM62.2579 55.0998V37.7794H70.9825V39.5004H72.7081V53.365H70.9825V55.0998H62.2579Z"
            fill="white" />
        <path d="M81.1759 1.80632H2.02271V62.6071H81.1759V1.80632Z" stroke="white"
            stroke-width="4.37339" />
    </g>
    <defs>
        <clipPath id="clip0_0_38">
            <rect width="83.4521" height="64.718" fill="white" />
        </clipPath>
    </defs>
</svg>
