<svg width="180" height="150" viewBox="0 0 180 150" fill="none" xmlns="http://www.w3.org/2000/svg">
<rect width="29.8502" height="29.8502" transform="matrix(-2.92674e-07 -1 -1 2.92674e-07 29.9111 59.7183)" fill="#0357D4"/>
<rect width="14.9251" height="14.9251" transform="matrix(-2.92674e-07 -1 -1 2.92674e-07 22.4492 52.2555)" fill="#0052B5"/>
<rect width="7.46256" height="7.46256" transform="matrix(-2.92674e-07 -1 -1 2.92674e-07 22.4492 44.793)" fill="#004E9B"/>
<rect width="29.8502" height="29.8502" transform="matrix(-2.92674e-07 -1 -1 2.92674e-07 29.9111 29.8502)" fill="#0357D4"/>
<rect width="14.9251" height="14.9251" transform="matrix(-2.92674e-07 -1 -1 2.92674e-07 22.4492 22.3873)" fill="#0052B5"/>
<rect width="7.46256" height="7.46256" transform="matrix(-2.92674e-07 -1 -1 2.92674e-07 22.4492 14.9259)" fill="#004E9B"/>
<rect width="29.8502" height="29.8502" transform="matrix(-2.92674e-07 -1 -1 2.92674e-07 119.462 119.454)" fill="#46B4FF"/>
<rect width="14.9251" height="14.9251" transform="matrix(-2.92674e-07 -1 -1 2.92674e-07 112 111.992)" fill="#25ABF4"/>
<rect width="7.46256" height="7.46256" transform="matrix(-2.92674e-07 -1 -1 2.92674e-07 112 104.53)" fill="#1BA5E2"/>
<rect width="29.8502" height="29.8502" transform="matrix(-2.92674e-07 -1 -1 2.92674e-07 149.312 119.454)" fill="#46B4FF"/>
<rect width="14.9251" height="14.9251" transform="matrix(-2.92674e-07 -1 -1 2.92674e-07 141.851 111.992)" fill="#25ABF4"/>
<rect width="7.46256" height="7.46256" transform="matrix(-2.92674e-07 -1 -1 2.92674e-07 141.851 104.529)" fill="#1BA5E2"/>
<rect width="29.8502" height="29.8502" transform="matrix(-2.92674e-07 -1 -1 2.92674e-07 29.9111 119.454)" fill="#08B74F"/>
<rect width="14.9251" height="14.9251" transform="matrix(-2.92674e-07 -1 -1 2.92674e-07 22.4492 111.992)" fill="#0BAB4C"/>
<rect width="7.46256" height="7.46256" transform="matrix(-2.92674e-07 -1 -1 2.92674e-07 22.4492 104.53)" fill="#0AA549"/>
<rect width="29.8502" height="29.8502" transform="matrix(-2.92674e-07 -1 -1 2.92674e-07 59.7617 119.454)" fill="#08B74F"/>
<rect width="14.9251" height="14.9251" transform="matrix(-2.92674e-07 -1 -1 2.92674e-07 52.2998 111.992)" fill="#0BAB4C"/>
<rect width="7.46256" height="7.46256" transform="matrix(-2.92674e-07 -1 -1 2.92674e-07 52.2998 104.53)" fill="#0AA549"/>
<rect width="29.8502" height="29.8502" transform="matrix(-2.92674e-07 -1 -1 2.92674e-07 89.6113 119.454)" fill="#08B74F"/>
<rect width="14.9251" height="14.9251" transform="matrix(-2.92674e-07 -1 -1 2.92674e-07 82.1484 111.992)" fill="#0BAB4C"/>
<rect width="7.46256" height="7.46256" transform="matrix(-2.92674e-07 -1 -1 2.92674e-07 82.1484 104.53)" fill="#0AA549"/>
<rect width="29.8502" height="29.8502" transform="matrix(-2.92674e-07 -1 -1 2.92674e-07 59.7617 89.5863)" fill="#7EFF5F"/>
<rect width="14.9251" height="14.9251" transform="matrix(-2.92674e-07 -1 -1 2.92674e-07 52.2998 82.1236)" fill="#6AF244"/>
<rect width="7.46256" height="7.46256" transform="matrix(-2.92674e-07 -1 -1 2.92674e-07 52.2998 74.66)" fill="#60E535"/>
<rect width="29.8502" height="29.8502" transform="matrix(-2.92674e-07 -1 -1 2.92674e-07 29.9111 89.5863)" fill="#7EFF5F"/>
<rect width="14.9251" height="14.9251" transform="matrix(-2.92674e-07 -1 -1 2.92674e-07 22.4492 82.1236)" fill="#6AF244"/>
<rect width="7.46256" height="7.46256" transform="matrix(-2.92674e-07 -1 -1 2.92674e-07 22.4492 74.66)" fill="#60E535"/>
<rect width="29.8502" height="29.8502" transform="matrix(-2.92674e-07 -1 -1 2.92674e-07 179.102 149.068)" fill="#08B74F"/>
<rect width="14.9251" height="14.9251" transform="matrix(-2.92674e-07 -1 -1 2.92674e-07 171.64 141.606)" fill="#0BAB4C"/>
<rect width="7.46256" height="7.46256" transform="matrix(-2.92674e-07 -1 -1 2.92674e-07 171.64 134.143)" fill="#0AA549"/>
<rect width="29.8502" height="29.8502" transform="matrix(-2.92674e-07 -1 -1 2.92674e-07 149.252 149.068)" fill="#08B74F"/>
<rect width="14.9251" height="14.9251" transform="matrix(-2.92674e-07 -1 -1 2.92674e-07 141.79 141.606)" fill="#0BAB4C"/>
<rect width="7.46256" height="7.46256" transform="matrix(-2.92674e-07 -1 -1 2.92674e-07 141.79 134.144)" fill="#0AA549"/>
<rect width="29.8502" height="29.8502" transform="matrix(-2.92674e-07 -1 -1 2.92674e-07 119.401 149.068)" fill="#46B4FF"/>
<rect width="14.9251" height="14.9251" transform="matrix(-2.92674e-07 -1 -1 2.92674e-07 111.938 141.605)" fill="#25ABF4"/>
<rect width="7.46256" height="7.46256" transform="matrix(-2.92674e-07 -1 -1 2.92674e-07 111.938 134.143)" fill="#1BA5E2"/>
<rect width="29.8502" height="29.8502" transform="matrix(-2.92674e-07 -1 -1 2.92674e-07 89.5508 149.068)" fill="#46B4FF"/>
<rect width="14.9251" height="14.9251" transform="matrix(-2.92674e-07 -1 -1 2.92674e-07 82.0879 141.605)" fill="#25ABF4"/>
<rect width="7.46256" height="7.46256" transform="matrix(-2.92674e-07 -1 -1 2.92674e-07 82.0879 134.143)" fill="#1BA5E2"/>
<rect width="29.8502" height="29.8502" transform="matrix(-2.92674e-07 -1 -1 2.92674e-07 59.7002 149.068)" fill="#7EFF5F"/>
<rect width="14.9251" height="14.9251" transform="matrix(-2.92674e-07 -1 -1 2.92674e-07 52.2383 141.605)" fill="#6AF244"/>
<rect width="7.46256" height="7.46256" transform="matrix(-2.92674e-07 -1 -1 2.92674e-07 52.2383 134.142)" fill="#60E535"/>
<rect width="29.8502" height="29.8502" transform="matrix(-2.92674e-07 -1 -1 2.92674e-07 29.8506 149.068)" fill="#7EFF5F"/>
<rect width="14.9251" height="14.9251" transform="matrix(-2.92674e-07 -1 -1 2.92674e-07 22.3887 141.606)" fill="#6AF244"/>
<rect width="7.46256" height="7.46256" transform="matrix(-2.92674e-07 -1 -1 2.92674e-07 22.3887 134.142)" fill="#60E535"/>
<rect width="29.8502" height="29.8502" transform="matrix(-2.92674e-07 -1 -1 2.92674e-07 59.7617 59.7183)" fill="#7EFF5F"/>
<rect width="14.9251" height="14.9251" transform="matrix(-2.92674e-07 -1 -1 2.92674e-07 52.2998 52.2564)" fill="#6AF244"/>
<rect width="7.46256" height="7.46256" transform="matrix(-2.92674e-07 -1 -1 2.92674e-07 52.2998 44.7936)" fill="#60E535"/>
</svg>
