<svg width="120" height="120" viewBox="0 0 120 120" fill="none" xmlns="http://www.w3.org/2000/svg">
<rect width="120" height="120" fill="#1E1E1E"/>
<g clip-path="url(#clip0_3859_21676)">
<path d="M35.278 60.8179H30.7267V38.6348H41.9191V43.1666H35.278V47.4516H41.9191V51.9834H35.278V60.8179Z" fill="white"/>
<path d="M48.5601 56.2685H52.8636V43.1667H48.5601V56.2685ZM46.2225 60.8179V58.5961H44.0088V40.839H46.2225V38.6348H55.2012V40.839H57.4149V58.5961H55.2012V60.8179H46.2225ZM44.1328 38.7054H46.2225V40.839H44.1328V38.7054ZM55.2012 38.6348H57.4149V40.839H55.2012V38.6348ZM55.2012 58.5961H57.4149V60.7474H55.2012V58.5961ZM44.0088 58.5961H46.2225V60.8179H44.0088V58.5961Z" fill="white"/>
<path d="M70.697 60.8179H59.5046V56.2684H68.3594V51.9834H61.7183V49.7792H59.5046V40.839H61.7183V38.6348H72.9107V43.1666H64.0559V47.4516H70.697V49.6558H72.9107V58.5961H70.697V60.8179ZM59.6286 38.7053H61.7183V40.839H59.6286V38.7053ZM59.5046 49.7792H61.7183V51.9834H59.5046V49.7792ZM70.697 47.4516H72.9107V49.6558H70.697V47.4516ZM70.697 58.5961H72.9107V60.7474H70.697V58.5961Z" fill="white"/>
<path d="M86.1928 60.8179H75.0004V56.2684H83.8552V51.9834H77.2141V49.7792H75.0004V40.839H77.2141V38.6348H88.4065V43.1666H79.5518V47.4516H86.1928V49.6558H88.4065V58.5961H86.1928V60.8179ZM75.1244 38.7053H77.2141V40.839H75.1244V38.7053ZM75.0004 49.7792H77.2141V51.9834H75.0004V49.7792ZM86.1928 47.4516H88.4065V49.6558H86.1928V47.4516ZM86.1928 58.5961H88.4065V60.7474H86.1928V58.5961Z" fill="white"/>
<path d="M32.3254 81.0831V79.4748H30.7256V65.0254H34.0148V77.7899H37.1248V65.0254H40.4139V79.4748H38.8141V81.0831H32.3254ZM30.7256 79.4748H32.3254V81.0831H30.7256V79.4748ZM38.8141 79.4748H40.4139V81.0321H38.8141V79.4748Z" fill="white"/>
<path d="M45.2133 81.0831H41.9241V65.0254H51.6124V81.0831H48.3233V68.3059H45.2133V81.0831Z" fill="white"/>
<path d="M56.4118 81.0831H53.1227V65.0254H56.4118V81.0831Z" fill="white"/>
<path d="M64.4108 81.0831H61.1216V68.3059H57.922V65.0254H67.6103V68.3059H64.4108V81.0831Z" fill="white"/>
<path d="M77.2091 81.0831H69.1205V65.0254H77.2091V68.3059H72.4097V71.4076H77.2091V74.6881H72.4097V77.7899H77.2091V81.0831Z" fill="white"/>
<path d="M82.0084 77.7899H85.1184V68.3059H82.0084V77.7899ZM78.7193 81.0831V65.0254H86.8078V66.621H88.4076V79.4748H86.8078V81.0831H78.7193Z" fill="white"/>
<path d="M96.2581 31.6748H22.8753V88.0431H96.2581V31.6748Z" stroke="white" stroke-width="4.05457"/>
</g>
<defs>
<clipPath id="clip0_3859_21676">
<rect width="77.3684" height="60" fill="white" transform="translate(21 30)"/>
</clipPath>
</defs>
</svg>
