<svg width="200" height="200" viewBox="0 0 200 200" fill="none" xmlns="http://www.w3.org/2000/svg">
<rect width="200" height="200" fill="#E6F8ED"/>
<path fill-rule="evenodd" clip-rule="evenodd" d="M67.8867 100.349C46.9527 100.349 29.9824 83.3783 29.9824 62.4443V33.334H96.9972V100.349H67.8867ZM45.5586 66.8398H86.3632C86.919 73.3627 83.7832 86.4085 66.7945 86.4085C49.8058 86.4085 45.5586 73.3627 45.5586 66.8398Z" fill="#1A1A1A"/>
<path fill-rule="evenodd" clip-rule="evenodd" d="M126.171 100.346C147.105 100.346 164.075 117.316 164.075 138.25V167.36H97.0605V100.346H126.171ZM147.415 134.698C147.633 137.253 146.494 141.097 143.8 144.313C141.137 147.492 136.997 150.004 131.259 150.004C126.11 150.004 121.702 147.501 118.558 144.261C115.382 140.989 113.648 137.129 113.648 134.617H111.736C111.736 137.807 113.815 142.119 117.186 145.593C120.59 149.1 125.465 151.916 131.259 151.916C137.619 151.916 142.276 149.108 145.265 145.541C148.222 142.011 149.588 137.683 149.32 134.535L147.415 134.698Z" fill="#1A1A1A"/>
<path fill-rule="evenodd" clip-rule="evenodd" d="M164.075 100.349H134.965C114.031 100.349 97.0605 83.3783 97.0605 62.4444V33.334H164.075V100.349ZM114.782 55.6265C113.79 56.8075 113.396 58.1947 113.47 59.0591L111.917 59.1918C111.802 57.8437 112.382 56.0605 113.588 54.6243C114.82 53.1573 116.741 52.0054 119.346 52.0054C121.736 52.0054 123.731 53.1643 125.11 54.582C126.463 55.9726 127.345 57.7422 127.345 59.1254H125.787C125.787 58.2962 125.186 56.8954 123.993 55.6688C122.826 54.4693 121.211 53.564 119.346 53.564C117.247 53.564 115.748 54.4762 114.782 55.6265ZM137.353 59.0594C137.279 58.1938 137.672 56.8062 138.66 55.6254C139.622 54.4752 141.114 53.564 143.203 53.564C145.058 53.564 146.666 54.4682 147.828 55.6677C149.016 56.8939 149.615 58.295 149.615 59.1254H151.173C151.173 57.7433 150.295 55.9741 148.947 54.5831C147.574 53.1653 145.585 52.0054 143.203 52.0054C140.606 52.0054 138.691 53.1584 137.464 54.6254C136.263 56.0618 135.685 57.8445 135.8 59.1915L137.353 59.0594Z" fill="#22B34F"/>
<path fill-rule="evenodd" clip-rule="evenodd" d="M59.0929 100.346H29.9824V167.36H96.9972V138.25C96.9972 117.316 80.0269 100.346 59.0929 100.346ZM58.0799 127.594C58.0799 131.05 55.2778 133.852 51.8212 133.852C48.3646 133.852 45.5625 131.05 45.5625 127.594C45.5625 124.137 48.3646 121.335 51.8212 121.335C55.2778 121.335 58.0799 124.137 58.0799 127.594ZM81.6965 127.594C81.6965 131.05 78.8943 133.852 75.4378 133.852C71.9812 133.852 69.179 131.05 69.179 127.594C69.179 124.137 71.9812 121.335 75.4378 121.335C78.8943 121.335 81.6965 124.137 81.6965 127.594Z" fill="#22B34F"/>
</svg>
