<svg width="125" height="95" viewBox="0 0 125 95" fill="none" xmlns="http://www.w3.org/2000/svg">
<path d="M23.0615 48.993H15.767V14.2395H33.7053V21.3394H23.0615V28.0525H33.7053V35.1524H23.0615V48.993Z" fill="white"/>
<path d="M44.3492 41.8656H51.2464V21.3395H44.3492V41.8656ZM40.6026 48.9931V45.5123H37.0547V17.6929H40.6026V14.2396H54.993V17.6929H58.5409V45.5123H54.993V48.9931H40.6026ZM37.2534 14.3501H40.6026V17.6929H37.2534V14.3501ZM54.993 14.2395H58.5409V17.6928H54.993V14.2395ZM54.993 45.5122H58.5409V48.8826H54.993V45.5122ZM37.0547 45.5122H40.6026V48.993H37.0547V45.5122Z" fill="white"/>
<path d="M79.8284 48.993H61.8901V41.8655H76.0818V35.1524H65.4381V31.6992H61.8901V17.6928H65.4381V14.2395H83.3763V21.3394H69.1847V28.0525H79.8284V31.5058H83.3763V45.5122H79.8284V48.993ZM62.0888 14.35H65.4381V17.6928H62.0888V14.35ZM61.8901 31.6992H65.4381V35.1524H61.8901V31.6992ZM79.8284 28.0525H83.3763V31.5058H79.8284V28.0525ZM79.8284 45.5122H83.3763V48.8826H79.8284V45.5122Z" fill="white"/>
<path d="M104.664 48.993H86.7256V41.8655H100.917V35.1524H90.2735V31.6992H86.7256V17.6928H90.2735V14.2395H108.212V21.3394H94.0201V28.0525H104.664V31.5058H108.212V45.5122H104.664V48.993ZM86.9243 14.35H90.2735V17.6928H86.9243V14.35ZM86.7256 31.6992H90.2735V35.1524H86.7256V31.6992ZM104.664 28.0525H108.212V31.5058H104.664V28.0525ZM104.664 45.5122H108.212V48.8826H104.664V45.5122Z" fill="white"/>
<path d="M18.3295 80.7421V78.2224H15.7655V55.585H21.0371V75.5826H26.0216V55.585H31.2932V78.2224H28.7292V80.7421H18.3295ZM15.7655 78.2224H18.3295V80.7421H15.7655V78.2224ZM28.7292 78.2224H31.2932V80.6621H28.7292V78.2224Z" fill="white"/>
<path d="M38.9852 80.7421H33.7136V55.585H49.2413V80.7421H43.9697V60.7244H38.9852V80.7421Z" fill="white"/>
<path d="M56.9332 80.7421H51.6616V55.585H56.9332V80.7421Z" fill="white"/>
<path d="M69.7534 80.7421H64.4818V60.7244H59.3538V55.585H74.8814V60.7244H69.7534V80.7421Z" fill="white"/>
<path d="M90.2654 80.7421H77.3018V55.585H90.2654V60.7244H82.5734V65.5838H90.2654V70.7232H82.5734V75.5826H90.2654V80.7421Z" fill="white"/>
<path d="M97.9575 75.5826H102.942V60.7244H97.9575V75.5826ZM92.6859 80.7421V55.585H105.65V58.0847H108.214V78.2224H105.65V80.7421H92.6859Z" fill="white"/>
<path d="M120.796 3.33545H3.18359V91.6459H120.796V3.33545Z" stroke="white" stroke-width="3.99999"/>
</svg>
