<svg width="38" height="41" viewBox="0 0 38 41" fill="none" xmlns="http://www.w3.org/2000/svg">
<path d="M27.3467 0.375C29.5299 0.375102 31.2996 2.1449 31.2998 4.32812C31.2998 5.23419 30.9941 6.06861 30.4814 6.73535L34.8555 20.6904C36.5952 21.1051 37.8887 22.6695 37.8887 24.5361C37.8885 26.7194 36.1189 28.4892 33.9355 28.4893C33.6093 28.4893 33.2925 28.4485 32.9893 28.374L23.7803 36.3818C23.8026 38.4 22.2847 40.1402 20.2373 40.3535C18.0656 40.5797 16.1217 39.0018 15.8955 36.8301C15.8667 36.5532 15.8663 36.28 15.8936 36.0137L5.19727 30.958C4.83836 31.0652 4.4582 31.124 4.06445 31.124C1.88117 31.1238 0.111328 29.3542 0.111328 27.1709C0.111357 25.3529 1.33862 23.822 3.00977 23.3604L3.59863 7.87793C2.38769 7.11336 1.63507 5.71648 1.76758 4.19141C1.95665 2.01621 3.87361 0.405732 6.04883 0.594727C7.09929 0.686087 8.01717 1.18139 8.66504 1.91309H24.2178C24.9408 0.977878 26.0731 0.375 27.3467 0.375ZM19.6914 35.1104C18.9675 35.1857 18.4412 35.8337 18.5166 36.5576C18.592 37.2814 19.2401 37.8067 19.9639 37.7314C20.6878 37.656 21.2141 37.0081 21.1387 36.2842C21.0632 35.5605 20.4151 35.0351 19.6914 35.1104ZM23.9404 22.0176C23.2378 23.2741 22.1051 24.2379 20.75 24.6904L20.8203 32.5938C21.5748 32.7896 22.2487 33.2046 22.7627 33.7734L30.7285 26.8467C30.2593 26.1967 29.9825 25.399 29.9824 24.5361C29.9824 24.4081 29.9881 24.2812 30 24.1562L23.9404 22.0176ZM8.01367 27.3145C7.99014 27.9737 7.80607 28.5912 7.49805 29.1299L17.0244 33.6338C17.3563 33.2996 17.7488 33.0239 18.1865 32.8242L18.1162 24.9043C16.9595 24.7176 15.9187 24.1696 15.1016 23.376L8.01367 27.3145ZM4.06445 25.8535C3.33683 25.8537 2.74711 26.4432 2.74707 27.1709C2.74707 27.8986 3.33681 28.4891 4.06445 28.4893C4.79227 28.4893 5.38281 27.8987 5.38281 27.1709C5.38278 26.4431 4.79225 25.8535 4.06445 25.8535ZM33.9355 23.2178C33.2077 23.2178 32.6172 23.8083 32.6172 24.5361C32.6174 25.2638 33.2078 25.8535 33.9355 25.8535C34.6632 25.8535 35.2527 25.2638 35.2529 24.5361C35.2529 23.8083 34.6633 23.2178 33.9355 23.2178ZM7.56348 8.02344C7.14977 8.24411 6.69396 8.39142 6.21387 8.45312L5.64062 23.5449C6.25553 23.8125 6.78836 24.232 7.19336 24.7559L13.665 21.1592C13.4236 20.5024 13.29 19.7899 13.29 19.0449C13.2901 17.9676 13.5672 16.9576 14.0508 16.0869L7.56348 8.02344ZM19 15.751C17.3949 15.7513 15.9259 17.131 15.9258 19.0449C15.9258 20.9589 17.3948 22.3396 19 22.3398C20.6054 22.3398 22.0752 20.9591 22.0752 19.0449C22.0751 17.1308 20.6053 15.751 19 15.751ZM28.1768 8.19336C27.909 8.2506 27.6315 8.28221 27.3467 8.28223C27.1874 8.28223 27.0303 8.27124 26.876 8.25293L23.4951 15.3896C24.2559 16.397 24.7109 17.6654 24.7109 19.0449C24.7109 19.194 24.7038 19.3419 24.6934 19.4883L31.1221 21.7578C31.4303 21.4457 31.79 21.1845 32.1875 20.9883L28.1768 8.19336ZM9.6582 4.54883C9.65767 4.65709 9.65407 4.76621 9.64453 4.87598C9.60853 5.29034 9.50963 5.684 9.3584 6.04883L15.8398 14.1055C16.7448 13.4798 17.8313 13.1153 19 13.1152C19.8562 13.1152 20.6685 13.3115 21.3975 13.6621L24.5127 7.08496C23.8676 6.42192 23.4535 5.53343 23.3994 4.54883H9.6582ZM5.82031 3.2207C5.09523 3.15771 4.45655 3.69484 4.39355 4.41992C4.33069 5.1448 4.86696 5.78351 5.5918 5.84668C6.31688 5.90968 6.95653 5.37255 7.01953 4.64746C7.0823 3.92254 6.54527 3.28369 5.82031 3.2207ZM27.3467 3.01074C26.619 3.01074 26.0285 3.60048 26.0283 4.32812C26.0283 5.05594 26.6189 5.64648 27.3467 5.64648C28.0744 5.64638 28.6641 5.05588 28.6641 4.32812C28.6639 3.60054 28.0743 3.01084 27.3467 3.01074Z" fill="#4B4B4B"/>
</svg>
