<svg width="102" height="28" viewBox="0 0 102 28" fill="none" xmlns="http://www.w3.org/2000/svg">
<path d="M26.4784 18.2749H29.3722V9.69303H26.4784V18.2749ZM23.418 21.2564V6.72363H30.9503V8.16603H32.441V19.7978H30.9503V21.2523H23.418V21.2564Z" fill="currentColor"/>
<path d="M10.4922 6.72363H7.24023V21.1959H10.4922V6.72363Z" fill="currentColor"/>
<path d="M37.6367 6.72363H34.3848V21.1959H37.6367V6.72363Z" fill="currentColor"/>
<path d="M15.506 21.2523H12.4414V6.72363H21.4602V21.2523H18.3957V9.69303H15.5018V21.2523H15.506Z" fill="currentColor"/>
<path fill-rule="evenodd" clip-rule="evenodd" d="M39.5842 21.2523H42.6446V15.4747H45.5385V21.2523H48.5989V6.72363H39.5801V21.2523H39.5842ZM45.5427 12.328V9.69303H42.6488V12.328H45.5427Z" fill="currentColor"/>
<path d="M57.4789 21.2523H54.4102V6.72363H61.955V9.69303H57.4789V12.5013H61.955V15.4707H57.4789V21.2564V21.2523Z" fill="currentColor"/>
<path d="M63.5684 6.72363V21.2523H72.6038V6.72363H63.5684ZM69.5351 18.2749H66.6329V9.69303H69.5351V18.2749Z" fill="currentColor"/>
<path d="M83.5863 9.69303V6.72363H76.0456H74.5508V8.16603V15.4666H80.5217V18.2749H74.5508V21.2523H82.0956H83.5863V19.7978V12.4972H77.6195V9.69303H83.5863Z" fill="currentColor"/>
<path d="M94.5726 9.69303V6.72363H87.0278H85.5371V8.16603V15.4666H91.5039V18.2749H85.5371V21.2523H93.0819H94.5726V19.7978V12.4972H88.6058V9.69303H94.5726Z" fill="currentColor"/>
<path d="M101.884 0V28H0V0H101.884ZM3.10352 3.10352V24.7744H98.7812V3.10352H3.10352Z" fill="currentColor"/>
</svg>
