<svg width="1065" height="1076" viewBox="0 0 1065 1076" fill="none" xmlns="http://www.w3.org/2000/svg">
<path d="M627.775 309.233C626.499 311.765 625.142 314.248 623.732 316.683C620.807 321.762 617.614 326.647 614.259 331.403C610.909 336.171 607.703 341.15 604.01 345.656C601.03 349.255 596.737 354.381 592.915 358.364C591.957 359.371 590.585 359.872 589.205 359.705C588.709 359.646 588.172 359.622 587.621 359.633C582.42 359.734 579.377 363.232 579.377 363.232C576.21 366.188 575.53 369.858 576.16 373.61C576.495 375.558 575.268 377.453 573.381 378.007C568.189 379.522 562.96 380.805 557.722 382.005C550.855 383.535 543.952 384.863 537.041 386.019C530.117 387.181 523.181 388.159 516.207 388.935C510.906 389.507 505.59 389.983 500.231 390.216C498.224 390.301 496.446 388.918 496.034 386.963C494.471 379.498 491.366 372.702 485.613 368.691C483.983 367.56 483.303 365.468 484.06 363.634C485.231 360.786 486.535 358.036 487.91 355.31C489.873 351.445 491.982 347.672 494.213 343.973C495.762 341.399 497.375 338.869 499.076 336.4C498.665 336.491 498.255 336.582 497.851 336.685C496.56 339.063 495.212 341.41 493.799 343.715C491.55 347.408 489.191 351.022 486.674 354.549C484.89 357.058 482.48 360.037 480.655 362.244C479.14 364.084 476.818 365.019 474.446 364.794C471.035 364.444 465.593 364.717 459.902 368.367C451.427 373.8 449.954 382.669 449.954 382.669C449.935 382.722 449.928 382.769 449.921 382.816C445.86 383.723 441.778 384.275 437.705 384.691C433.39 385.12 429.078 385.371 424.757 385.48C421.52 385.56 418.278 385.569 415.034 385.448C414.724 385.814 414.42 386.191 414.11 386.557C417.654 386.229 421.213 386.056 424.77 385.971C429.084 385.88 433.419 385.925 437.744 386.136C440.402 386.285 443.071 386.487 445.737 386.808C447.631 387.04 449.081 388.564 449.274 390.461C449.655 393.995 450.972 397.219 452.952 400.145C452.899 400.404 452.839 400.68 452.791 400.981C452.757 401.187 452.711 401.399 452.659 401.599C451.266 406.423 449.399 410.989 447.352 415.449C445.279 420.01 442.954 424.441 440.501 428.786C438.037 433.137 435.444 437.402 432.658 441.567C431.103 443.88 429.495 446.174 427.8 448.407C426.465 450.163 423.878 450.258 422.34 448.674C417.376 443.545 411.166 440.364 403.94 443.145C403.94 443.145 397.863 444.799 394.662 451.091C393.492 453.413 393.05 455.668 392.965 457.595C392.924 458.623 392.335 459.574 391.453 460.122C386.815 462.997 382.015 465.467 377.153 467.806C371.664 470.425 366.079 472.812 360.422 475.015C354.764 477.217 349.04 479.245 343.204 480.947C341.15 481.551 339.091 482.113 337.003 482.645C337.039 483.9 337.093 485.161 337.159 486.417C339.4 485.184 341.674 484.023 343.965 482.898C349.438 480.213 355.022 477.855 360.685 475.665C366.354 473.487 372.077 471.488 377.908 469.716C382.625 468.308 387.386 467.027 392.259 466.043C393.584 465.783 394.894 466.422 395.637 467.563C400.45 474.942 411.136 475.805 420.259 474.936C421.463 474.821 422.66 475.221 423.546 476.046C427.027 479.331 430.152 482.856 433.134 486.479C436.548 490.614 439.721 494.921 442.732 499.319C445.761 503.724 448.646 508.225 451.339 512.847C454.026 517.486 456.58 522.217 458.69 527.245C458.853 527.622 459.093 527.976 459.399 528.285C460.708 529.539 462.84 529.41 463.974 527.939C464.979 526.661 464.684 524.797 463.514 523.682C459.624 519.962 456.161 515.938 452.823 511.84C449.463 507.664 446.284 503.375 443.237 498.994C440.201 494.607 437.293 490.116 434.642 485.46C433.362 483.213 432.124 480.931 430.965 478.598C429.743 476.133 431.046 473.194 433.706 472.479C434.938 472.146 435.648 471.914 435.648 471.914C435.648 471.914 433.382 465.161 429.242 458.093C428.718 457.2 428.63 456.116 428.978 455.147C430.495 450.864 432.463 445.987 434.117 442.429C436.243 437.887 438.544 433.468 440.985 429.099C443.432 424.742 446.008 420.47 448.835 416.329C450.67 413.65 452.581 411.008 454.656 408.464C456.043 406.757 458.563 406.489 460.277 407.858C473.936 418.739 495.298 423.571 495.298 423.571C495.298 423.571 497.465 413.323 497.41 401.403C497.403 399.622 498.504 398.02 500.191 397.444C505.67 395.575 511.171 394.002 516.699 392.519C523.53 390.728 530.387 389.115 537.269 387.71C544.156 386.287 551.058 385.048 557.99 383.998C566.205 382.754 573.744 382.091 577.198 381.82C578.395 381.723 579.535 382.311 580.163 383.331C583.717 389.096 588.224 393.504 588.224 393.504C588.224 393.504 590.951 390.638 593.742 386.514C594.354 385.611 595.493 385.205 596.52 385.554C599.608 386.612 602.596 387.862 605.523 389.201C609.474 391.006 613.291 393.021 617.046 395.153C620.801 397.284 624.488 399.551 628.095 401.957C631.683 404.387 635.222 406.928 638.539 409.837C638.788 410.055 639.092 410.234 639.421 410.342C640.865 410.8 642.424 409.889 642.661 408.315C642.849 407.072 641.994 405.911 640.79 405.528C636.65 404.192 632.702 402.488 628.81 400.684C624.883 398.838 621.06 396.841 617.293 394.715C613.526 392.588 609.826 390.357 606.251 387.892C603.571 386.057 601.203 383.797 598.618 381.757C597.775 381.087 597.499 379.945 597.919 378.943C600.871 371.877 599.23 367.285 597.641 364.877C596.617 363.327 596.561 361.351 597.403 359.696C599.774 355.083 602.758 350.004 604.918 346.309C607.938 341.214 611.529 336.493 614.88 331.665C617.405 328.032 620.012 324.447 622.788 321.003C625.563 317.558 628.437 314.199 631.509 310.98C630.251 310.389 628.986 309.816 627.722 309.244L627.775 309.233ZM414.17 468.291C407.227 471.89 398.923 467.679 397.732 459.951C397.011 455.261 399.419 450.513 403.639 448.332C410.582 444.733 418.886 448.944 420.082 456.684C420.804 461.374 418.395 466.122 414.175 468.303L414.17 468.291ZM487.924 390.937C486.029 399.624 477.451 405.119 468.764 403.225C460.076 401.33 454.581 392.752 456.476 384.065C458.371 375.377 466.948 369.882 475.636 371.777C484.323 373.672 489.818 382.249 487.924 390.937ZM593.722 377.239C589.842 381.131 583.191 379.709 580.849 374.746L580.645 374.316C579.291 371.446 579.649 367.928 581.842 365.636C585.023 362.307 590.296 362.202 593.613 365.389C596.947 368.611 597.021 373.942 593.734 377.233L593.722 377.239Z" fill="url(#paint0_radial_4097_30389)"/>
<path d="M474.838 375.414C468.17 373.956 461.567 378.183 460.114 384.863C458.656 391.532 462.883 398.134 469.563 399.587C476.232 401.046 482.834 396.819 484.287 390.138C485.746 383.47 481.519 376.867 474.838 375.414Z" fill="#7EFF5F"/>
<path d="M406.202 450.075C401.655 451.563 399.154 456.457 400.648 461.015C402.136 465.562 407.03 468.063 411.588 466.57C416.135 465.082 418.636 460.188 417.143 455.629C415.655 451.082 410.761 448.581 406.202 450.075Z" fill="#7EFF5F"/>
<path d="M592.271 366.783C589.73 364.342 585.682 364.41 583.241 366.951C580.799 369.492 580.867 373.54 583.408 375.981C585.95 378.422 589.997 378.355 592.438 375.813C594.88 373.272 594.812 369.225 592.271 366.783Z" fill="#7EFF5F"/>
<g opacity="0.44">
<path d="M314.778 600.502C314.856 594.47 315.1 588.419 315.563 582.337C316.78 566.264 319.336 550.612 323.063 535.459L304.983 534.079L306.43 526.641L307.38 526.982L320.181 491.274L328.377 496.311L351.993 457.867L339.702 450.319L346.051 442.921L353.572 434.166L356.75 430.459L370.062 414.951L385.567 396.872L386.54 395.74L394.389 386.597L396.695 389.5L425.123 366.829L456.965 348.234L375.304 208.348L342.615 190.759L335.042 179.917L334.275 180.367L340.151 192.2L339.391 229.317L377.714 294.968L342.545 250.872L338.75 253.891L335.886 250.3L338.923 247.873L337.237 245.759L304.262 272.053L305.947 274.168L308.983 271.74L311.847 275.331L308.058 278.362L349.978 330.94C344.229 332.732 339.523 335.771 339.523 335.771C339.523 335.771 335.634 344.479 336.016 352.413L326.652 344.375C326.652 344.375 328.951 334.313 313.04 327.77C299.362 322.148 284.065 332.891 280.03 336.023L279.495 335.633L280.674 334.257L279.49 333.237L278.227 334.711L269.498 328.361L268.49 329.539L276.1 337.176L274.849 338.644L276.032 339.665L277.211 338.29L277.841 338.913C274.924 344.443 268.035 359.961 275.212 371.853C284.099 386.594 293.696 382.796 293.696 382.796L301.024 389.09C294.727 390.804 289.343 394.266 289.343 394.266C289.343 394.266 282.818 408.882 287.479 417.488C287.711 417.919 287.969 418.309 288.226 418.699L214.355 373.334L185.203 408.38L228.313 434.853L202.109 453.127L218.257 503.114L199.607 499.473L169.516 528.471L191.593 532.775L191.213 537.794L143.308 534.157L142.7 542.164L131.522 541.313L130.679 552.384L100.826 551.091L100.785 551.593L130.473 555.201L129.63 566.272L140.808 567.124L140.131 576.099L188.037 579.736L187.472 587.153L224.625 589.972L224.352 593.639L314.813 600.514L314.778 600.502Z" fill="url(#paint1_linear_4097_30389)"/>
<path d="M402.253 242.741L452.867 338.837L484.321 322.268L491.181 318.65C492.505 322.353 493.874 326.152 495.317 330.047L523.835 319.557L524.546 323.418L558.183 317.208L577.054 313.727L576.87 316.124L617.796 319.225L629.96 320.152L643.411 321.173L643.191 321.978C665.243 325.33 686.404 331.193 706.374 339.212L711.205 321.843L763.325 350.058L767.643 352.392L758.13 365.26L785.669 385.6L851.065 297.071L837.775 257.446L801.275 306.853L793.084 295.074L810.661 262.61L813.273 264.023L796.773 240.74L790.749 217.689L739.101 227.222L742.245 228.926L732.62 246.7L727.988 247.761L731.132 249.464L730.638 250.37L726.329 249.172L736.307 213.276L729.136 211.279L742.005 164.997L734.264 162.846L737.266 152.042L726.58 149.073L733.639 120.037L733.151 119.902L723.853 148.313L713.166 145.343L710.165 156.147L701.495 153.732L688.626 200.014L681.455 198.018L674.769 222.082L638.776 204.123L640.971 175.189L635.131 174.743L635.492 170.055L640.163 170.409L640.367 167.652L589.61 163.796L589.405 166.553L594.076 166.908L593.715 171.596L587.875 171.15L581.605 253.723L563.318 154.681L558.988 155.482L559.778 159.759L530.12 165.231L529.33 160.954L515.852 163.44L527.141 224.537L506.992 228.256L507.583 231.428L486.475 174.029C464.369 182.151 450.189 199.692 487.134 307.006L419.128 177.9L402.204 186.808L425.266 230.593L402.265 242.705L402.253 242.741Z" fill="url(#paint2_linear_4097_30389)"/>
</g>
<path d="M785.651 344.842L787.292 341.319L785.396 340.43L799.102 310.947L800.302 311.507L802.006 307.837L803.34 308.465L804.242 306.533L801.713 305.358L804.923 298.433L806.193 299.018L807.132 297.011L805.58 296.295L807.577 292.005L778.55 278.522L781.803 271.534L783.301 272.23L784.713 269.18L783.215 268.484L786.56 261.29C786.56 261.29 789.908 257.634 786.536 252.193C786.536 252.193 780.547 253.104 779.571 257.79L777.613 262.004L761.317 254.429L745.022 246.855L746.981 242.641C749.929 238.881 746.77 233.704 746.77 233.704C740.438 234.631 739.793 239.555 739.793 239.555L736.448 246.749L734.949 246.052L733.537 249.102L735.036 249.799L731.784 256.787L702.757 243.304L700.761 247.595L699.21 246.879L698.271 248.887L699.542 249.472L696.332 256.396L693.804 255.221L692.902 257.152L694.236 257.78L692.532 261.45L693.732 262.01L683.689 283.608L684.016 280.924L684.429 277.585L682.382 277.338L683.791 265.824L682.087 265.619L683.256 256.076L681.781 255.894L683.021 245.82L681.358 245.61L682.519 236.143L681.387 236.005L682.354 228.048L681.674 226.731L681.82 225.522L683.656 224.363L683.741 213.605L682.532 213.46L683.446 206.039L681.18 205.763L680.267 213.183L676.279 212.696L677.114 205.884L674.849 205.607L674.014 212.42L670.027 211.933L670.797 205.604L668.532 205.328L667.762 211.657L663.774 211.17L664.48 205.354L662.215 205.078L661.509 210.894L657.522 210.407L658.196 204.928L655.931 204.651L655.257 210.131L651.269 209.644L651.975 203.828L649.71 203.552L649.004 209.368L645.017 208.881L645.787 202.552L643.522 202.276L642.751 208.605L638.764 208.118L639.599 201.305L637.334 201.029L636.499 207.842L632.511 207.355L633.425 199.935L631.16 199.658L630.246 207.079L629.037 206.933L626.528 217.387L628.031 218.959L627.885 220.168L626.901 221.276L625.934 229.233L624.802 229.095L623.64 238.562L621.977 238.353L620.737 248.427L619.262 248.246L618.093 257.79L616.388 257.585L616.048 260.334L614.042 231.701L617.328 227.417L614.228 222.987L612.579 192.446L611.642 188.941L610.982 172.95L611.762 170.359L611.045 169.615L611.172 164.028L611.205 162.58L609.984 162.191L610.07 158.13L608.711 157.016L608.888 149.242L606.518 148.094L604.099 149.133L603.923 156.908L602.52 157.964L602.434 162.026L601.19 162.364L601.157 163.813L601.03 169.399L600.287 170.116L600.955 172.74L599.474 188.688L598.491 192.15L595.487 222.591L592.201 226.876L595.301 231.305L592.463 255.965C589.57 256.249 586.181 256.781 582.43 257.323C582.43 257.323 580.171 243.768 578.316 241.572C578.316 241.572 576.984 230.197 574.898 226.956C572.813 223.714 560.276 221.501 556.946 221.479C556.946 221.479 554.521 220.708 556.318 218.413C558.11 216.105 559.587 214.867 558.31 211.975C557.623 210.428 556.195 210.312 556.195 210.312C556.195 210.312 556.588 203.679 551.276 201.594C551.276 201.594 550.237 198.122 546.908 198.597C543.579 199.071 543.567 202.703 543.567 202.703C539.063 206.203 541.311 212.453 541.311 212.453C541.311 212.453 539.975 212.966 539.741 214.641C539.333 217.773 541.102 218.546 543.47 220.25C545.839 221.954 543.731 223.373 543.731 223.373C540.556 224.33 529.142 229.98 528.058 233.694C526.969 237.396 528.907 248.69 528.907 248.69C528.071 250.605 528.706 258.303 529.116 262.394L525.019 254.487L526.083 253.985L525.287 252.328L524.067 252.904L515.361 235.943L516.401 235.452L515.444 233.609L514.224 234.184L511.981 229.555L512.739 228.466L511.156 227.839C511.156 227.839 509.923 224.327 505.688 224.337C503.051 227.643 505.038 230.799 505.038 230.799L504.551 232.433L505.875 232.51L508.123 237.151L506.844 237.755L507.778 239.61L508.782 239.136L516.705 256.481L515.485 257.056L516.287 258.725L517.351 258.223L520.961 266.213C518.2 266.683 515.875 267.209 514.114 267.938L495.107 228.716L493.181 229.655L496.978 237.483L495.603 238.132L489.421 225.375L487.496 226.314L491.293 234.143L488.41 235.532L489.738 238.283L486.024 240.08L486.894 241.862L481.667 244.387L479 238.891L481.057 237.891L479.73 235.14L477.672 236.14C477.672 236.14 476.284 226.97 464.108 229.148L460.72 224.168L462.199 230.122C462.199 230.122 459.025 232.103 458.075 236.192C458.075 236.192 456.99 229.028 453.27 223.78C447.395 215.513 438.615 213.238 426.662 211.144C426.662 211.144 421.49 211.494 418.839 209.967C416.194 208.452 414.832 207.208 414.832 207.208L407.633 195.765L412.153 208.502C412.153 208.502 412.277 210.344 411.83 213.363C411.383 216.381 407.906 220.23 407.906 220.23C402.139 230.905 398.484 239.21 401.339 248.945C403.139 255.114 408.106 260.403 408.106 260.403C404.307 258.613 400.795 259.876 400.795 259.876L397.037 255.011L398.841 260.754C389.586 268.967 395.927 275.742 395.927 275.742L393.87 276.742L395.197 279.493L397.255 278.493L399.922 283.989L394.7 286.526L393.83 284.744L390.116 286.54L388.788 283.789L385.906 285.179L382.109 277.35L380.183 278.288L386.37 291.057L384.995 291.706L381.203 283.889L379.277 284.827L406.2 340.389L400.309 343.242L397.444 337.635L398.328 337.217L397.532 335.561L396.647 335.978L388.663 320.548L389.728 320.046L388.931 318.389L387.712 318.965L379.006 302.004L380.046 301.513L379.088 299.67L377.868 300.245L375.625 295.616L376.383 294.527L374.801 293.9C374.801 293.9 373.567 290.388 369.332 290.398C366.701 293.716 368.682 296.86 368.682 296.86L368.196 298.494L369.519 298.571L371.768 303.212L370.488 303.816L371.422 305.671L372.427 305.197L380.349 322.542L379.129 323.117L379.931 324.786L380.996 324.284L387.709 339.129L370.302 319.563L370.962 316.81L369.312 314.957L365.449 318.388L361.244 313.661L359.113 315.559L357.55 313.796L354.767 316.265L351.059 312.093L349.761 313.247L347.529 310.747L332.78 323.863L318.032 336.979L320.265 339.478L318.967 340.632L322.675 344.803L319.893 347.272L321.455 349.034L319.324 350.932L323.529 355.659L319.665 359.09L321.315 360.944L324.126 360.611L336.544 374.563C327.851 373.709 314.148 374.941 298.65 385.881L303.494 388.801C303.494 388.801 285.449 390.035 266.171 396.589C266.171 396.589 272.884 396.872 276.972 398.408C276.972 398.408 268.091 399.265 263.749 400.598C263.749 400.598 265.82 403.714 268.47 405.52L280.623 413.704L267.714 406.768C264.88 405.255 261.167 404.886 261.167 404.886C262.013 409.342 265.398 417.599 265.398 417.599C262.14 414.692 258.758 408.889 258.758 408.889C261.951 429.008 269.27 445.541 269.27 445.541L264.427 442.621C260.239 474.674 278.599 489.009 278.599 489.009C277.045 490.239 275.774 492.038 274.782 493.778L256.749 490.577L256.241 493.404L247.264 492.012L247.401 491.216L245.898 490.945L245.762 491.741L231.485 489.589L231.655 488.617L230.158 488.358L229.962 489.46L214.294 487.057L214.512 485.814L212.821 485.515L212.563 486.982L208.351 486.236L207.99 485.193L206.796 485.946C206.796 485.946 203.835 485.063 201.776 487.92C202.717 491.307 205.806 491.502 205.806 491.502L206.674 492.628L207.367 491.774L211.58 492.52L211.321 493.987L213.012 494.286L213.23 493.043L228.768 496.164L228.572 497.265L230.068 497.524L230.238 496.552L244.386 499.452L244.25 500.248L245.752 500.518L245.888 499.723L254.797 501.499L253.976 506.171L249.139 505.31L249.282 504.497L247.815 504.238L247.672 505.051L240.22 503.729L239.587 503.194L238.67 503.451L228.891 501.721L227.975 501.144L227.442 501.688C227.442 501.688 225.361 500.594 222.884 502.903C224.43 505.931 226.75 505.611 226.75 505.611L227.077 506.305L228.111 506.08L237.891 507.81L238.665 508.366L239.44 508.088L246.893 509.411L246.75 510.224L248.217 510.482L248.36 509.669L253.196 510.53L251.894 517.87L242.721 516.248L242.497 517.509L239.734 517.015L239.993 515.518L237.696 515.111L237.437 516.608C237.437 516.608 231.924 515.583 231.198 519.654L228.24 519.705L230.962 521.198C230.962 521.198 230.634 525.243 235.594 526.118L235.398 527.19L237.967 527.645L238.238 526.143L240.677 526.571L238.323 539.832L235.969 553.093L233.53 552.665L233.789 551.169L231.221 550.714L231.025 551.786C226.064 550.91 224.982 554.813 224.982 554.813L221.901 555.288L224.657 556.356C223.932 560.426 229.459 561.356 229.459 561.356L229.188 562.859L231.486 563.266L231.756 561.764L234.519 562.258L234.295 563.519L243.468 565.141L242.166 572.481L237.329 571.62L237.472 570.807L236.005 570.549L235.862 571.362L228.41 570.039L227.777 569.505L226.86 569.762L217.081 568.031L216.165 567.455L215.632 567.998C215.632 567.998 213.552 566.904 211.074 569.214C212.62 572.242 214.94 571.922 214.94 571.922L215.267 572.616L216.302 572.391L226.081 574.121L226.855 574.677L227.63 574.399L235.083 575.721L234.94 576.535L236.407 576.793L236.55 575.98L241.386 576.841L240.565 581.513L231.588 580.12L231.724 579.324L230.222 579.054L230.086 579.849L215.808 577.697L215.978 576.725L214.482 576.466L214.285 577.568L198.618 575.165L198.835 573.922L197.145 573.624L196.887 575.091L192.674 574.344L192.314 573.301L191.119 574.055C191.119 574.055 188.158 573.171 186.1 576.029C187.04 579.416 190.13 579.61 190.13 579.61L190.997 580.736L191.691 579.882L195.903 580.628L195.645 582.095L197.336 582.394L197.553 581.151L213.092 584.272L212.895 585.374L214.392 585.632L214.562 584.66L228.71 587.56L228.573 588.356L230.076 588.627L230.212 587.831L239.121 589.607L238.613 592.435L281.407 600.019C279.232 766.896 407.226 908.852 575.937 921.668C751.456 935 904.535 803.527 917.866 628.007C926.608 512.935 873.1 407.516 785.758 344.791L785.651 344.842ZM768.932 325.683C768.982 325.571 769.038 325.472 769.087 325.361C770.774 322.181 774.122 322.21 776.726 321.595C778.093 323.933 780.116 326.516 778.769 329.857C778.719 329.968 778.681 330.074 778.619 330.191L775.161 337.642C772.166 335.664 769.146 333.726 766.077 331.84L768.944 325.677L768.932 325.683ZM725.508 295.82C725.62 295.591 725.732 295.363 725.861 295.141C729.599 288.377 738.611 289.285 745.436 288.535C749.708 294.181 755.793 300.535 753.02 307.736C752.926 307.97 752.832 308.205 752.714 308.451L746.881 321C738.048 316.41 728.951 312.223 719.638 308.445L725.515 295.802L725.508 295.82ZM692.197 290.018C692.247 289.906 692.302 289.807 692.352 289.696C694.039 286.516 697.386 286.545 699.991 285.93C701.358 288.268 703.381 290.851 702.034 294.192C701.984 294.303 701.946 294.409 701.884 294.526L698.917 300.912C695.512 299.799 692.07 298.733 688.615 297.732L692.203 290.029L692.197 290.018ZM653.777 218.242L656.773 218.612L656.157 223.596L653.161 223.226L653.777 218.242ZM652.383 227.527L655.875 227.955L655.339 232.273L651.847 231.844L652.383 227.527ZM650.722 237.361L655.117 237.905L654.581 242.222L650.187 241.679L650.722 237.361ZM649.51 247.247L653.904 247.79L653.369 252.108L648.974 251.565L649.51 247.247ZM648.072 255.88L653.221 256.505L652.635 261.242L647.485 260.616L648.072 255.88ZM646.73 266.792L651.879 267.418L651.183 273.098L646.033 272.472L646.73 266.792ZM644.789 280.092L650.546 280.797L649.579 288.754L643.822 288.049L644.789 280.092ZM510.457 272.706C511.249 278.195 514.298 281.186 514.298 281.186L511.877 281.539L512.404 285.165L510.748 285.406L511.192 288.515L505.66 277.104C504.367 274.425 506.789 270.138 506.789 270.138L507.195 269.946C507.195 269.946 508.899 270.21 510.549 270.981C510.401 271.504 510.365 272.077 510.462 272.718L510.457 272.706ZM503.906 293.123L491.317 299.225L485.356 286.935C484.062 284.256 488.805 278.845 488.805 278.845L489.474 278.529C489.474 278.529 496.652 278.153 497.945 280.833L503.906 293.123ZM496.093 248.063L496.499 247.871C496.499 247.871 501.362 248.632 502.662 251.294L508.623 263.585L500.938 267.314L494.977 255.023C493.683 252.344 496.105 248.057 496.105 248.057L496.093 248.063ZM478.109 256.77L478.778 256.453C478.778 256.453 485.956 256.078 487.25 258.758L493.211 271.048L480.621 277.15L474.66 264.86C473.366 262.18 478.109 256.77 478.109 256.77ZM442.581 269.91L444.016 269.233C444.016 269.233 459.732 269.229 462.913 275.784L477.508 305.903L450.612 318.932L436.018 288.813C432.837 282.258 442.581 269.91 442.581 269.91ZM430.847 313.332L436.808 325.622L424.219 331.724L418.258 319.434C416.964 316.755 421.706 311.344 421.706 311.344L422.376 311.028C422.376 311.028 429.554 310.652 430.847 313.332ZM411.004 289.286L411.674 288.97C411.674 288.97 418.852 288.595 420.145 291.274L426.106 303.565L413.517 309.667L407.556 297.376C406.262 294.697 411.004 289.286 411.004 289.286ZM392.155 304.834C390.862 302.155 393.284 297.869 393.284 297.869L393.69 297.677C393.69 297.677 398.553 298.438 399.853 301.099L405.814 313.39L398.128 317.119L392.167 304.829L392.155 304.834ZM402.845 326.897C401.552 324.218 403.974 319.932 403.974 319.932L404.38 319.74C404.38 319.74 409.243 320.501 410.543 323.162L416.504 335.453L408.818 339.182L402.857 326.892L402.845 326.897ZM350.237 343.595C354.56 339.742 361.193 340.136 365.046 344.458L385.85 367.845C380.669 372.542 375.631 377.42 370.767 382.45L349.369 358.393C345.516 354.07 345.909 347.437 350.231 343.583L350.237 343.595ZM351.826 391.886L352.61 392.773L340.852 412.256C340.852 412.256 339.766 408.529 339.782 400.508C339.782 400.508 344.913 395.207 351.826 391.886ZM285.467 552.265L279.964 551.295L281.356 543.43L286.846 544.406C286.355 547.021 285.893 549.637 285.467 552.265ZM294.608 488.881C293.781 480.499 296.494 472.244 296.494 472.244C303.57 468.495 307.386 467.718 307.386 467.718L294.613 488.893L294.608 488.881ZM319.757 445.197L313.77 455.128C313.77 455.128 310.728 441.123 314.803 434.36C318.879 427.597 332.7 423.765 332.7 423.765L326.713 433.696L329.433 435.337C327.069 439.128 324.776 442.974 322.569 446.881L319.774 445.203L319.757 445.197ZM578.345 888.321C421.266 876.39 303.605 739.383 315.537 582.304C327.468 425.225 464.475 307.565 621.554 319.496C778.632 331.427 896.293 468.434 884.362 625.513C872.43 782.592 735.423 900.252 578.345 888.321Z" fill="url(#paint3_radial_4097_30389)"/>
<defs>
<radialGradient id="paint0_radial_4097_30389" cx="0" cy="0" r="1" gradientUnits="userSpaceOnUse" gradientTransform="translate(496.791 425.001) rotate(-25.264) scale(180.849 180.849)">
<stop offset="0.12" stop-color="#08B64F"/>
<stop offset="0.23" stop-color="#0DB94F"/>
<stop offset="0.36" stop-color="#1BC251"/>
<stop offset="0.5" stop-color="#34D155"/>
<stop offset="0.64" stop-color="#56E659"/>
<stop offset="0.78" stop-color="#7EFF5F"/>
</radialGradient>
<linearGradient id="paint1_linear_4097_30389" x1="532.442" y1="599.962" x2="189.921" y2="344.026" gradientUnits="userSpaceOnUse">
<stop stop-color="#08B64F"/>
<stop offset="0.1" stop-color="#0DB94F"/>
<stop offset="0.23" stop-color="#1BC251"/>
<stop offset="0.36" stop-color="#34D155"/>
<stop offset="0.51" stop-color="#56E659"/>
<stop offset="0.64" stop-color="#7EFF5F"/>
<stop offset="0.97" stop-color="#B5FF86"/>
</linearGradient>
<linearGradient id="paint2_linear_4097_30389" x1="555.855" y1="544.548" x2="647.056" y2="154.498" gradientUnits="userSpaceOnUse">
<stop stop-color="#08B64F"/>
<stop offset="0.12" stop-color="#0DB94F"/>
<stop offset="0.26" stop-color="#1BC251"/>
<stop offset="0.41" stop-color="#34D155"/>
<stop offset="0.58" stop-color="#56E659"/>
<stop offset="0.73" stop-color="#7EFF5F"/>
<stop offset="0.97" stop-color="#B5FF86"/>
</linearGradient>
<radialGradient id="paint3_radial_4097_30389" cx="0" cy="0" r="1" gradientUnits="userSpaceOnUse" gradientTransform="translate(557.33 529.79) rotate(4.34596) scale(413.77 405.494)">
<stop offset="0.32" stop-color="#08B64F"/>
<stop offset="0.45" stop-color="#1AC151"/>
<stop offset="0.73" stop-color="#49DE57"/>
<stop offset="1" stop-color="#7EFF5F"/>
</radialGradient>
</defs>
</svg>
