<svg width="720" height="803" viewBox="0 0 720 803" fill="none" xmlns="http://www.w3.org/2000/svg">
<path fill-rule="evenodd" clip-rule="evenodd" d="M466.043 200.307H257.702V220.392H237.617V200.307H237.617V560.138H486.128V220.392H466.043V200.307Z" fill="#333333"/>
<rect x="265.189" y="286.437" width="139.234" height="12.5958" fill="#35B55A"/>
<rect x="265.189" y="314.355" width="139.234" height="12.5958" fill="#97CA4E"/>
<rect x="265.189" y="342.269" width="139.234" height="12.5958" fill="#AADAF5"/>
<rect x="265.189" y="371.882" width="139.234" height="12.5958" fill="#AADAF5"/>
<rect x="265.189" y="401.5" width="139.234" height="12.5958" fill="#1E1E1E"/>
<rect x="265.189" y="431.117" width="139.234" height="12.5958" fill="#1E1E1E"/>
<rect x="302.297" y="571.375" width="127.66" height="12.5958" fill="#1E1E1E"/>
<rect x="324.426" y="590.097" width="83.7447" height="12.5958" fill="#1E1E1E"/>
<rect x="262.469" y="571.375" width="34.383" height="12.5958" fill="#1E1E1E"/>
<rect x="435.404" y="571.375" width="34.383" height="12.5958" fill="#1E1E1E"/>
<rect width="13.4867" height="8.94495" transform="matrix(0.656092 0.754681 -0.75468 0.656094 425.35 284.062)" fill="#1E1E1E"/>
<rect width="33.6818" height="8.94495" transform="matrix(-0.764389 0.644756 -0.644754 -0.76439 458.779 284.995)" fill="#1E1E1E"/>
<rect width="13.4867" height="8.94495" transform="matrix(0.656092 0.754681 -0.75468 0.656094 425.35 313.339)" fill="#1E1E1E"/>
<rect width="33.6818" height="8.94495" transform="matrix(-0.764389 0.644756 -0.644754 -0.76439 458.779 314.272)" fill="#1E1E1E"/>
<rect width="13.4867" height="8.94495" transform="matrix(0.656092 0.754681 -0.75468 0.656094 425.35 342.616)" fill="#1E1E1E"/>
<rect width="33.6818" height="8.94495" transform="matrix(-0.764389 0.644756 -0.644754 -0.76439 458.783 343.55)" fill="#1E1E1E"/>
<rect width="13.4867" height="8.94495" transform="matrix(0.656092 0.754681 -0.75468 0.656094 425.35 371.894)" fill="#1E1E1E"/>
<rect width="33.6818" height="8.94495" transform="matrix(-0.764389 0.644756 -0.644754 -0.76439 458.783 372.827)" fill="#1E1E1E"/>
<rect width="13.4867" height="8.94495" transform="matrix(0.656092 0.754681 -0.75468 0.656094 425.35 400.155)" fill="#1E1E1E"/>
<rect width="33.6818" height="8.94495" transform="matrix(-0.764389 0.644756 -0.644754 -0.76439 458.779 401.084)" fill="#1E1E1E"/>
<rect width="13.4867" height="8.94495" transform="matrix(0.656092 0.754681 -0.75468 0.656094 425.35 427.729)" fill="#1E1E1E"/>
<rect width="33.6818" height="8.94495" transform="matrix(-0.764389 0.644756 -0.644754 -0.76439 458.781 428.659)" fill="#1E1E1E"/>
<path fill-rule="evenodd" clip-rule="evenodd" d="M289.697 200.307H309.782V213.245H309.783V200.307H413.613V213.245H413.613V200.307H433.698V220.392H423.146V229.926H413.613V240.482H309.783V229.926H298.207V220.392H289.697V200.307Z" fill="#35B55A"/>
<rect x="308.766" y="229.925" width="104.851" height="10.5532" fill="#189647"/>
<rect x="413.617" y="220.398" width="9.53191" height="9.53193" fill="#189647"/>
<rect x="423.15" y="200.308" width="10.5532" height="20.0851" fill="#189647"/>
<path d="M310.684 400.994H303.525V408.175H310.684V400.994Z" fill="#189647"/>
<path d="M317.84 407.709H310.682V414.89H317.84V407.709Z" fill="#189647"/>
<path d="M310.684 443.615H303.525V450.796H310.684V443.615Z" fill="#189647"/>
<path d="M317.838 436.433V429.252H310.68V436.433H317.838Z" fill="#189647"/>
<path d="M317.838 443.621V436.439H310.68V443.621H317.838Z" fill="#189647"/>
<path d="M317.838 429.257V422.076H310.68V429.257H317.838Z" fill="#189647"/>
<path d="M317.838 422.07V414.889H310.68V422.07H317.838Z" fill="#189647"/>
<path d="M232.008 408.178H224.85V415.359H232.008V408.178Z" fill="#08B74F"/>
<path d="M232.008 436.902V429.721H224.85V436.902H232.008Z" fill="#08B74F"/>
<path d="M232.008 444.074V436.893H224.85V444.074H232.008Z" fill="#08B74F"/>
<path d="M232.008 429.71V422.529H224.85V429.71H232.008Z" fill="#08B74F"/>
<path d="M232.008 422.539V415.357H224.85V422.539H232.008Z" fill="#08B74F"/>
<path d="M296.363 387.572H289.205V394.753H296.363V387.572Z" fill="#189647"/>
<path d="M303.525 394.275H296.367V401.456H303.525V394.275Z" fill="#189647"/>
<path d="M246.246 394.74H253.404V387.559H246.246V394.74Z" fill="#08B74F"/>
<path d="M239.09 401.475H246.248V394.294H239.09V401.475Z" fill="#08B74F"/>
<path d="M231.928 408.178H239.086V400.997H231.928V408.178Z" fill="#08B74F"/>
<path d="M274.893 380.393H267.734V387.574H274.893V380.393Z" fill="#08B74F"/>
<path d="M282.049 380.393H274.891V387.574H282.049V380.393Z" fill="#08B74F"/>
<path d="M289.207 380.393H282.049V387.574H289.207V380.393Z" fill="#189647"/>
<path d="M267.73 380.393H260.572V387.574H267.73V380.393Z" fill="#08B74F"/>
<path d="M260.574 380.393H253.416V387.574H260.574V380.393Z" fill="#08B74F"/>
<path d="M296.363 457.037H289.205V464.218H296.363V457.037Z" fill="#189647"/>
<path d="M303.525 450.318H296.367V457.499H303.525V450.318Z" fill="#189647"/>
<path d="M246.246 464.217H253.404V457.036H246.246V464.217Z" fill="#08B74F"/>
<path d="M239.09 457.514H246.248V450.333H239.09V457.514Z" fill="#08B74F"/>
<path d="M231.928 450.803H239.086V443.622H231.928V450.803Z" fill="#08B74F"/>
<path d="M274.893 464.217H267.734V471.398H274.893V464.217Z" fill="#08B74F"/>
<path d="M282.049 464.217H274.891V471.398H282.049V464.217Z" fill="#08B74F"/>
<path d="M289.207 464.217H282.049V471.398H289.207V464.217Z" fill="#189647"/>
<path d="M282.049 464.217H274.891V471.398H282.049V464.217Z" fill="#08B74F"/>
<path d="M267.73 464.217H260.572V471.398H267.73V464.217Z" fill="#08B74F"/>
<path d="M260.574 464.217H253.416V471.398H260.574V464.217Z" fill="#08B74F"/>
<path d="M231.873 408.172H239.099V401.456H246.258V394.753H253.416V387.572H289.207V394.753H296.365V401.456H303.523V408.172H310.682V443.612H303.523V450.314H296.365V457.03H289.207V464.211H253.416V457.03H246.258V450.314H239.099V443.612H231.941L231.873 408.172Z" fill="#08B74F"/>
<path d="M249.842 411.545H257V404.364H249.842V411.545Z" fill="#97CA4E"/>
<path d="M257.004 404.807H264.162V397.626H257.004V404.807Z" fill="#AADAF5"/>
<path d="M242.674 418.244H249.832V411.063H242.674V418.244Z" fill="#97CA4E"/>
<path d="M235.516 424.947H242.674V417.766H235.516V424.947Z" fill="#3D86F1"/>
<path d="M235.516 432.143H242.674V424.961H235.516V432.143Z" fill="#3D86F1"/>
<path d="M274.865 464.217H267.707V471.398H274.865V464.217Z" fill="#08B74F"/>
<path d="M267.73 464.217H260.572V471.398H267.73V464.217Z" fill="#08B74F"/>
<path d="M260.574 464.217H253.416V471.398H260.574V464.217Z" fill="#08B74F"/>
<path d="M289.207 457.037H282.049V464.218H289.207V457.037Z" fill="#08B74F"/>
<path d="M296.363 450.318H289.205V457.499H296.363V450.318Z" fill="#08B74F"/>
<path d="M303.525 443.615H296.367V450.796H303.525V443.615Z" fill="#08B74F"/>
<path d="M310.684 436.439H303.525V443.621H310.684V436.439Z" fill="#189647"/>
<path d="M296.363 484.549H289.205V491.73H296.363V484.549Z" fill="#189647"/>
<path d="M303.525 484.549H296.367V491.73H303.525V484.549Z" fill="#189647"/>
<path d="M310.684 491.732H303.525V498.914H310.684V491.732Z" fill="#189647"/>
<path d="M317.84 491.732H310.682V498.914H317.84V491.732Z" fill="#189647"/>
<path d="M324.996 498.92H317.838V506.101H324.996V498.92Z" fill="#189647"/>
<path d="M332.154 506.096H324.996V513.277H332.154V506.096Z" fill="#189647"/>
<path d="M339.316 513.283H332.158V520.464H339.316V513.283Z" fill="#189647"/>
<path d="M339.316 520.459H332.158V553.41H339.316V520.459Z" fill="#189647"/>
<path d="M246.326 491.744H253.484V484.563H246.326V491.744Z" fill="#08B74F"/>
<path d="M239.168 491.744H246.326V484.563H239.168V491.744Z" fill="#08B74F"/>
<path d="M231.996 498.928H239.154V491.747H231.996V498.928Z" fill="#08B74F"/>
<path d="M224.836 498.928H231.994V491.747H224.836V498.928Z" fill="#08B74F"/>
<path d="M217.678 506.107H224.836V498.926H217.678V506.107Z" fill="#08B74F"/>
<path d="M210.516 513.287H217.674V506.106H210.516V513.287Z" fill="#08B74F"/>
<path d="M203.359 520.471H210.518V513.29H203.359V520.471Z" fill="#08B74F"/>
<path d="M203.359 553.428H210.518V520.477H203.359V553.428Z" fill="#08B74F"/>
<path d="M339.314 553.414V546.232H203.377V553.414H339.314Z" fill="#189647"/>
<path d="M210.533 546.224H332.155V513.273H324.996V506.092H317.838V498.911H303.522V491.73H289.205V484.549H253.482V491.73H239.166V498.911H224.85V506.092H217.691V513.273H210.533V547.031" fill="#08B74F"/>
<path fill-rule="evenodd" clip-rule="evenodd" d="M476.154 387.723H431.644V492.005H446.48V506.424H461.316V492.005H461.317V521.258H446.481V536.095H476.154H505.828V521.258H490.991V492.005H490.992V506.424H505.829V492.005H520.665V387.723H476.154ZM431.637 402.57H416.8V417.407H431.637V402.57ZM431.637 461.496H416.8V476.333H431.637V461.496ZM401.962 402.57H416.799V461.494H401.962V402.57ZM431.22 536.102H476.154H521.089V550.939H476.154H431.22V536.102ZM520.672 402.57H535.509V417.407H520.672V402.57ZM520.672 461.496H535.509V476.333H520.672V461.496ZM550.347 402.57H535.51V461.494H550.347V402.57Z" fill="#4C4B4B"/>
<rect x="446.059" y="402.561" width="10.5768" height="9.98918" fill="#AADAF5"/>
<rect x="446.059" y="412.553" width="10.5768" height="9.98918" fill="#97CA4E"/>
<rect x="446.059" y="422.244" width="10.5768" height="9.98918" fill="#35B55A"/>
<rect x="446.059" y="432.236" width="10.5768" height="9.98918" fill="#3D86F1"/>
<rect x="490.986" y="492.001" width="15.2608" height="14.413" fill="#1E1E1E"/>
<rect x="475.729" y="506.407" width="15.2608" height="14.8369" fill="#1E1E1E"/>
<rect x="490.561" y="521.259" width="15.2608" height="14.8369" fill="#1E1E1E"/>
<rect x="431.219" y="536.103" width="89.445" height="14.8369" fill="#1E1E1E"/>
<rect x="520.664" y="461.485" width="14.8368" height="14.8369" fill="#1E1E1E"/>
<rect x="520.664" y="402.556" width="14.8368" height="14.8369" fill="#1E1E1E"/>
<rect x="535.496" y="402.556" width="14.8368" height="58.9236" fill="#1E1E1E"/>
<rect x="505.828" y="387.724" width="14.8368" height="104.282" fill="#1E1E1E"/>
<rect x="160" y="547.769" width="400" height="12.1511" fill="#1E1E1E"/>
<rect x="433.703" y="200.308" width="32.3404" height="10.2128" fill="#1E1E1E"/>
<rect x="455.148" y="210.183" width="10.8936" height="10.2128" fill="#1E1E1E"/>
<rect x="455.148" y="220.398" width="10.8936" height="10.2128" fill="#1E1E1E"/>
<rect x="466.043" y="220.398" width="10.8936" height="10.2128" fill="#1E1E1E"/>
<rect x="474.68" y="220.398" width="11.6593" height="167.327" fill="#1E1E1E"/>
<path fill-rule="evenodd" clip-rule="evenodd" d="M346.982 463.807H316.757V470.753H346.982V463.807ZM316.76 470.756H309.25V477.702H316.76V470.756ZM301.741 477.701H309.25V484.643V484.647V491.589H301.741V484.647V484.643V477.701ZM346.985 470.756H354.494V477.702H346.985V470.756ZM362.004 477.701H354.495V484.643V484.647V491.589H362.004V484.647V484.643V477.701Z" fill="#125ECE"/>
<path fill-rule="evenodd" clip-rule="evenodd" d="M346.982 519.002H316.757V512.057H309.25V505.11H316.76V512.056H346.982V519.002ZM301.741 505.107H309.25V498.166V498.161V491.22H301.741V498.161V498.166V505.107ZM346.985 512.057H354.494V505.11H346.985V512.057ZM362.004 505.107H354.495V498.166V498.161V491.22H362.004V498.161V498.166V505.107Z" fill="#125ECE"/>
<path d="M316.387 470.756H347.551V491.97L346.8 513.184H316.387V470.756Z" fill="#3D86F1"/>
<rect x="324.084" y="477.705" width="30.4131" height="27.9726" fill="#3D86F1"/>
<path d="M309.252 477.705H339.29V505.115H309.252V477.705Z" fill="#3D86F1"/>
<rect width="6.48295" height="22.5283" transform="matrix(-1 0 0 1 335.162 480.705)" fill="#AADAF5"/>
<rect width="6.48297" height="22.5283" transform="matrix(-4.37113e-08 1 1 4.37115e-08 320.52 488.779)" fill="#AADAF5"/>
</svg>
