<svg width="426" height="345" viewBox="0 0 426 345" fill="none" xmlns="http://www.w3.org/2000/svg">
<rect x="154.464" y="315.77" width="116.768" height="11.5211" fill="black" fill-opacity="0.7"/>
<rect x="174.705" y="332.896" width="76.6" height="11.5211" fill="black" fill-opacity="0.7"/>
<rect x="276.216" y="315.77" width="31.4496" height="11.5211" fill="black" fill-opacity="0.7"/>
<rect x="118.335" y="315.77" width="31.4496" height="11.5211" fill="black" fill-opacity="0.7"/>
<rect y="294.176" width="426" height="10.8739" fill="#1E1E1E"/>
<rect x="51.1712" y="74.7793" width="308.306" height="219.396" fill="#333333"/>
<rect x="51.1712" y="19.252" width="308.306" height="55.6486" fill="#35B55A"/>
<rect x="88.9099" y="105.482" width="40.2973" height="40.2973" fill="#1E1E1E"/>
<rect x="88.9099" y="164.33" width="40.2973" height="40.2973" fill="#1E1E1E"/>
<rect x="88.9099" y="223.176" width="40.2973" height="40.2973" fill="#1E1E1E"/>
<rect x="152.874" y="105.482" width="40.2973" height="40.2973" fill="#1E1E1E"/>
<rect x="152.874" y="164.33" width="40.2973" height="40.2973" fill="#1E1E1E"/>
<rect x="152.874" y="223.176" width="40.2973" height="40.2973" fill="#1E1E1E"/>
<rect x="216.838" y="105.482" width="40.2973" height="40.2973" fill="#1E1E1E"/>
<rect x="216.838" y="164.33" width="40.2973" height="40.2973" fill="#1E1E1E"/>
<rect x="216.838" y="223.176" width="40.2973" height="40.2973" fill="#1E1E1E"/>
<rect x="280.802" y="105.482" width="40.2973" height="40.2973" fill="#1E1E1E"/>
<rect x="280.802" y="164.33" width="40.2973" height="40.2973" fill="#1E1E1E"/>
<rect x="280.802" y="223.176" width="40.2973" height="40.2973" fill="#1E1E1E"/>
<rect x="373.02" y="231.695" width="15.7484" height="13.4324" fill="#189647"/>
<rect x="382.746" y="231.695" width="15.7484" height="48.1715" fill="#189647"/>
<rect x="304.468" y="219.65" width="72.2572" height="74.5732" fill="#35B55A"/>
<rect x="360.976" y="219.65" width="15.7484" height="74.5732" fill="#189647"/>
<rect x="343.486" y="196.312" width="8.95496" height="13.4324" fill="#125ECE"/>
<rect x="324.384" y="261.338" width="8.33737" height="8.05946" fill="#333333"/>
<rect x="316.046" y="269.213" width="8.33737" height="8.05946" fill="#333333"/>
<rect x="324.384" y="277.086" width="8.33737" height="8.05946" fill="#333333"/>
<rect x="336.89" y="277.086" width="27.7912" height="7.87419" fill="#333333"/>
<rect x="352.441" y="182.24" width="8.31532" height="13.4324" fill="#97CA4E"/>
<rect x="324.297" y="172.006" width="8.31532" height="21.7477" fill="#35B55A"/>
<rect x="343.486" y="156.016" width="8.95496" height="26.2252" fill="#AADAF5"/>
<rect x="373.02" y="266.434" width="15.7484" height="13.4324" fill="#189647"/>
<rect x="94.027" y="0.582031" width="18.5495" height="40.9369" fill="#1E1E1E"/>
<rect x="136.243" y="0.582031" width="18.5495" height="40.9369" fill="#1E1E1E"/>
<rect x="178.459" y="0.582031" width="18.5495" height="40.9369" fill="#1E1E1E"/>
<rect x="220.676" y="0.582031" width="18.5495" height="40.9369" fill="#1E1E1E"/>
<rect x="262.892" y="0.582031" width="18.5495" height="40.9369" fill="#1E1E1E"/>
<rect x="94.027" y="19.1309" width="18.5495" height="22.3874" fill="#333333"/>
<rect x="136.243" y="19.1309" width="18.5495" height="22.3874" fill="#333333"/>
<rect x="178.459" y="19.1309" width="18.5495" height="22.3874" fill="#333333"/>
<rect x="220.676" y="19.1309" width="18.5495" height="22.3874" fill="#333333"/>
<rect x="262.892" y="19.1309" width="18.5495" height="22.3874" fill="#333333"/>
<rect x="16.8755" y="50.3574" width="78.0531" height="72.4924" transform="rotate(-22.0525 16.8755 50.3574)" fill="#97CA4E"/>
<rect x="7.03691" y="53.4277" width="11.2773" height="72.5914" transform="rotate(-22.0525 7.03691 53.4277)" fill="#8DC044"/>
<rect x="49.0332" y="127.34" width="11.2773" height="76.9977" transform="rotate(-112.181 49.0332 127.34)" fill="#8DC044"/>
<rect x="33.9018" y="97.1172" width="10.0882" height="9.92856" transform="rotate(-22.0525 33.9018 97.1172)" fill="#8DC044"/>
<rect x="47.3342" y="102.873" width="10.0882" height="14.2244" transform="rotate(-22.0525 47.3342 102.873)" fill="#8DC044"/>
<rect x="37.7396" y="106.072" width="10.0882" height="12.7215" transform="rotate(-22.0525 37.7396 106.072)" fill="#8DC044"/>
<rect x="46.2415" y="74.2988" width="5.65111" height="5.65111" transform="rotate(-17.9086 46.2415 74.2988)" fill="#333333"/>
<rect x="53.3549" y="77.9375" width="5.65111" height="5.65111" transform="rotate(-17.9086 53.3549 77.9375)" fill="#333333"/>
<rect x="60.1861" y="81.668" width="5.65111" height="5.65111" transform="rotate(-17.9086 60.1861 81.668)" fill="#333333"/>
<rect x="63.829" y="74.5547" width="5.65111" height="5.65111" transform="rotate(-17.9086 63.829 74.5547)" fill="#333333"/>
<rect x="67.467" y="67.4395" width="5.65111" height="5.65111" transform="rotate(-17.9086 67.467 67.4395)" fill="#333333"/>
<rect x="71.1974" y="60.6074" width="5.65111" height="5.65111" transform="rotate(-17.9086 71.1974 60.6074)" fill="#333333"/>
<rect x="74.8378" y="53.4902" width="5.65111" height="5.65111" transform="rotate(-17.9086 74.8378 53.4902)" fill="#333333"/>
<path fill-rule="evenodd" clip-rule="evenodd" d="M358.328 10.1777H300.551V23.4555H358.328V10.1777ZM300.553 23.4565H286.198V36.7343H300.553V23.4565ZM271.844 36.7353H286.198V50.009V50.0131V63.2869H271.844V50.0131V50.009V36.7353ZM358.33 23.4565H372.685V36.7343H358.33V23.4565ZM387.039 36.7353H372.685V50.009V50.0131V63.2869H387.039V50.0131V50.009V36.7353Z" fill="#125ECE"/>
<path fill-rule="evenodd" clip-rule="evenodd" d="M358.328 115.676H300.551V102.398H286.198V89.1204H300.553V102.398H358.328V115.676ZM271.844 89.1182H286.198V75.8432V75.8404V62.5654H271.844V75.8404V75.8432V89.1182ZM358.33 102.398H372.685V89.1204H358.33V102.398ZM387.039 89.1182H372.685V75.8432V75.8404V62.5654H387.039V75.8404V75.8432V89.1182Z" fill="#125ECE"/>
<path d="M299.843 23.4551H359.414V64.0062L357.979 104.557H299.843V23.4551Z" fill="#3D86F1"/>
<rect x="314.56" y="36.7344" width="58.1353" height="53.4701" fill="#3D86F1"/>
<path d="M286.211 36.7344H343.629V89.1279H286.211V36.7344Z" fill="#3D86F1"/>
<rect width="12.5121" height="27.6582" transform="matrix(-1 0 0 1 335.724 42.4434)" fill="#AADAF5"/>
<rect width="12.5121" height="27.6582" transform="matrix(-4.37114e-08 1 1 4.37114e-08 323.211 57.5898)" fill="#AADAF5"/>
</svg>
