<svg width="31" height="16" viewBox="0 0 31 16" fill="none" xmlns="http://www.w3.org/2000/svg">
<rect x="8.22656" y="15.1597" width="7.58041" height="7.58057" transform="rotate(-180 8.22656 15.1597)" fill="#46B4FF"/>
<rect x="6.25586" y="13.1902" width="3.6386" height="3.63867" transform="rotate(-180 6.25586 13.1902)" fill="#28AFF9"/>
<path d="M4.93311 13.1912L3.11381 13.1912L3.11381 11.3718L4.93311 11.3718L4.93311 13.1912Z" fill="#1BA5E2"/>
<rect x="8.22559" y="7.58057" width="7.58041" height="7.58057" transform="rotate(-180 8.22559 7.58057)" fill="#46B4FF"/>
<rect x="6.25488" y="5.61206" width="3.6386" height="3.63867" transform="rotate(-180 6.25488 5.61206)" fill="#28AFF9"/>
<rect x="4.47754" y="5.61206" width="1.8193" height="1.81934" transform="rotate(-180 4.47754 5.61206)" fill="#1BA5E2"/>
<rect x="30.9678" y="15.1614" width="7.58041" height="7.58057" transform="rotate(-180 30.9678 15.1614)" fill="#46B4FF"/>
<rect x="28.9971" y="13.1919" width="3.6386" height="3.63867" transform="rotate(-180 28.9971 13.1919)" fill="#28AFF9"/>
<rect x="27.2197" y="13.1919" width="1.8193" height="1.81934" transform="rotate(-180 27.2197 13.1919)" fill="#1BA5E2"/>
<rect x="23.3872" y="15.1614" width="7.58041" height="7.58057" transform="rotate(-180 23.3872 15.1614)" fill="#46B4FF"/>
<rect x="21.4165" y="13.1919" width="3.6386" height="3.63867" transform="rotate(-180 21.4165 13.1919)" fill="#28AFF9"/>
<rect x="19.6392" y="13.1919" width="1.8193" height="1.81934" transform="rotate(-180 19.6392 13.1919)" fill="#1BA5E2"/>
<rect x="15.8062" y="15.1821" width="7.58041" height="7.58057" transform="rotate(-180 15.8062 15.1821)" fill="#46B4FF"/>
<rect x="13.8354" y="13.2126" width="3.6386" height="3.63867" transform="rotate(-180 13.8354 13.2126)" fill="#28AFF9"/>
<rect x="12.0581" y="13.2126" width="1.8193" height="1.81934" transform="rotate(-180 12.0581 13.2126)" fill="#1BA5E2"/>
</svg>
