<svg width="31" height="16" viewBox="0 0 31 16" fill="none" xmlns="http://www.w3.org/2000/svg">
<rect width="7.59137" height="7.58092" transform="matrix(-4.37109e-08 -1 -1 4.37118e-08 15.3237 15.1819)" fill="#7EFF5F"/>
<rect width="3.64386" height="3.63884" transform="matrix(-4.36513e-08 -1 -1 4.37716e-08 13.353 13.2092)" fill="#6AF244"/>
<rect width="1.82193" height="1.81942" transform="matrix(-4.35917e-08 -1 -1 4.38314e-08 13.353 11.4302)" fill="#60E535"/>
<rect width="7.59137" height="7.58092" transform="matrix(-4.36512e-08 -1 -1 4.37716e-08 15.3232 7.59082)" fill="#7EFF5F"/>
<rect width="3.64386" height="3.63884" transform="matrix(-4.35917e-08 -1 -1 4.38315e-08 13.3521 5.61816)" fill="#6AF244"/>
<rect width="1.82193" height="1.81942" transform="matrix(-4.35321e-08 -1 -1 4.38914e-08 13.3521 3.83887)" fill="#60E535"/>
<rect width="7.59137" height="7.58092" transform="matrix(-4.36512e-08 -1 -1 4.37716e-08 22.9043 15.1819)" fill="#7EFF5F"/>
<rect width="3.64385" height="3.63884" transform="matrix(-4.35917e-08 -1 -1 4.38315e-08 20.9331 13.2092)" fill="#6AF244"/>
<rect width="1.82193" height="1.81942" transform="matrix(-4.35321e-08 -1 -1 4.38914e-08 20.9331 11.4302)" fill="#60E535"/>
<rect width="7.58092" height="7.59137" transform="matrix(-1 8.75432e-08 8.73025e-08 1 7.74219 7.59155)" fill="#7EFF5F"/>
<rect width="3.63884" height="3.64385" transform="matrix(-1 8.75432e-08 8.73025e-08 1 5.77051 9.56372)" fill="#6AF244"/>
<rect width="1.81942" height="1.82193" transform="matrix(-1 8.75432e-08 8.73025e-08 1 3.99316 9.56348)" fill="#60E535"/>
</svg>
