<svg width="31" height="16" viewBox="0 0 31 16" fill="none" xmlns="http://www.w3.org/2000/svg">
<rect x="15.8394" y="15.1821" width="7.58097" height="7.59162" transform="rotate(-180 15.8394 15.1821)" fill="#03C35A"/>
<rect x="13.8682" y="13.2095" width="3.63886" height="3.64398" transform="rotate(-180 13.8682 13.2095)" fill="#08B74F"/>
<rect x="12.0913" y="13.2095" width="1.81943" height="1.82199" transform="rotate(-180 12.0913 13.2095)" fill="#0AA549"/>
<rect x="15.8394" y="7.5918" width="7.58097" height="7.59162" transform="rotate(-180 15.8394 7.5918)" fill="#03C35A"/>
<rect x="13.8682" y="5.61914" width="3.63886" height="3.64398" transform="rotate(-180 13.8682 5.61914)" fill="#08B74F"/>
<path d="M11.9712 5.61768L10.1518 5.61768L10.1518 3.79569L11.9712 3.79569L11.9712 5.61768Z" fill="#0AA549"/>
<rect x="8.2583" y="15.1821" width="7.58097" height="7.59162" transform="rotate(-180 8.2583 15.1821)" fill="#03C35A"/>
<rect x="6.28662" y="13.2102" width="3.63886" height="3.64398" transform="rotate(-180 6.28662 13.2102)" fill="#08B74F"/>
<rect x="4.50928" y="13.2102" width="1.81943" height="1.82199" transform="rotate(-180 4.50928 13.2102)" fill="#0AA549"/>
</svg>
