<svg width="600" height="460" viewBox="0 0 600 460" fill="none" xmlns="http://www.w3.org/2000/svg">
<mask id="mask0_3694_60490" style="mask-type:alpha" maskUnits="userSpaceOnUse" x="0" y="0" width="600" height="460">
<rect width="600" height="460" fill="#D9D9D9"/>
</mask>
<g mask="url(#mask0_3694_60490)">
<rect x="471" y="-70" width="100" height="100" fill="#E6F8ED"/>
<rect x="570" y="-70" width="100" height="100" fill="#F0F9FF"/>
<rect x="271" y="-70" width="100" height="100" fill="#E6F8ED"/>
<rect x="-28" y="-70" width="100" height="100" fill="#E6F8ED"/>
<rect x="171" y="-70" width="100" height="100" fill="#F8F9FC"/>
<rect x="71" y="-70" width="100" height="100" fill="#F0F9FF"/>
<rect x="371" y="-70" width="100" height="100" fill="#F5F8FF"/>
<rect x="-28" y="130" width="100" height="100" fill="#F4F3FF"/>
<rect x="-28" y="30" width="100" height="100" fill="#F9FAFB"/>
<rect x="-28" y="230" width="100" height="100" fill="#E6F8ED"/>
<rect x="371" y="430" width="100" height="100" fill="#F8F9FC"/>
<rect x="71" y="430" width="100" height="100" fill="#F8F9FC"/>
<rect x="171" y="430" width="100" height="100" fill="#F0F9FF"/>
<rect x="271" y="430" width="100" height="100" fill="#F4F3FF"/>
<rect x="-28" y="430" width="100" height="100" fill="#F4F3FF"/>
<rect x="-28" y="330" width="100" height="100" fill="#F9FAFB"/>
<rect x="570" y="430" width="100" height="100" fill="#F8F9FC"/>
<rect x="471" y="430" width="100" height="100" fill="#F4F3FF"/>
<rect x="570" y="30" width="100" height="100" fill="#E6F8ED"/>
<rect x="570" y="130" width="100" height="100" fill="#F8F9FC"/>
<rect x="471" y="130" width="100" height="100" fill="#F4F3FF"/>
<rect x="471" y="30" width="100" height="100" fill="#F9FAFB"/>
<rect x="171" y="30" width="100" height="100" fill="#F5F8FF"/>
<rect x="371" y="30" width="100" height="100" fill="#E6F8ED"/>
<rect x="71" y="30" width="100" height="100" fill="#E6F8ED"/>
<rect x="371" y="130" width="100" height="100" fill="#F8F9FC"/>
<rect x="71" y="130" width="100" height="100" fill="#F8F9FC"/>
<rect x="271" y="30" width="100" height="100" fill="#F8F9FC"/>
<rect x="171" y="130" width="100" height="100" fill="#F0F9FF"/>
<rect x="271" y="130" width="100" height="100" fill="#F4F3FF"/>
<rect x="271" y="230" width="100" height="100" fill="#E6F8ED"/>
<rect x="171" y="230" width="100" height="100" fill="#F8F9FC"/>
<rect x="71" y="230" width="100" height="100" fill="#F0F9FF"/>
<rect x="371" y="230" width="100" height="100" fill="#F5F8FF"/>
<rect x="171" y="330" width="100" height="100" fill="#F5F8FF"/>
<rect x="371" y="330" width="100" height="100" fill="#E6F8ED"/>
<rect x="71" y="330" width="100" height="100" fill="#E6F8ED"/>
<rect x="271" y="330" width="100" height="100" fill="#F8F9FC"/>
<rect x="471" y="230" width="100" height="100" fill="#E6F8ED"/>
<rect x="570" y="230" width="100" height="100" fill="#F0F9FF"/>
<rect x="570" y="330" width="100" height="100" fill="#E6F8ED"/>
<rect x="471" y="330" width="100" height="100" fill="#F9FAFB"/>
</g>
</svg>
